<?xml version="1.0" encoding="UTF-8" standalone="no"?>
<!-- Created with Inkscape (http://www.inkscape.org/) -->

<svg
   width="65.14994mm"
   height="44.344086mm"
   viewBox="0 0 65.149942 44.344086"
   version="1.1"
   id="svg1"
   inkscape:version="1.4.2 (ebf0e940d0, 2025-05-08)"
   sodipodi:docname="halfspikes.svg"
   inkscape:export-filename="halfspikes.png"
   inkscape:export-xdpi="19.486118"
   inkscape:export-ydpi="19.486118"
   xmlns:inkscape="http://www.inkscape.org/namespaces/inkscape"
   xmlns:sodipodi="http://sodipodi.sourceforge.net/DTD/sodipodi-0.dtd"
   xmlns="http://www.w3.org/2000/svg"
   xmlns:svg="http://www.w3.org/2000/svg">
  <sodipodi:namedview
     id="namedview1"
     pagecolor="#ffffff"
     bordercolor="#000000"
     borderopacity="0.25"
     inkscape:showpageshadow="2"
     inkscape:pageopacity="0.0"
     inkscape:pagecheckerboard="0"
     inkscape:deskcolor="#d1d1d1"
     inkscape:document-units="mm"
     inkscape:zoom="1.2443998"
     inkscape:cx="298.5375"
     inkscape:cy="76.743825"
     inkscape:window-width="1920"
     inkscape:window-height="1128"
     inkscape:window-x="0"
     inkscape:window-y="0"
     inkscape:window-maximized="1"
     inkscape:current-layer="layer1" />
  <defs
     id="defs1" />
  <g
     inkscape:label="Layer 1"
     inkscape:groupmode="layer"
     id="layer1"
     transform="translate(-27.858125,-136.30294)">
    <path
       style="fill:#4c0000;stroke-width:1.46125;stroke-linecap:round;stroke-linejoin:bevel;stroke-miterlimit:0.5"
       id="path1"
       d="m 29.50443,171.25531 c 0.0716,-0.43623 0.132506,-0.87467 0.189325,-1.313 0.09911,-0.75824 0.189856,-1.51741 0.304474,-2.27373 0.02572,-0.1581 0.05069,-0.31632 0.07716,-0.47431 0.07983,-0.47639 0.08116,-0.43281 0.146024,-0.91482 0.06864,-0.51012 0.112682,-1.02266 0.159974,-1.53483 0.134022,-1.12749 0.259079,-2.25567 0.375126,-3.38497 0.125786,-1.22382 0.220577,-2.45022 0.330502,-3.67539 0.143378,-1.45129 0.2465,-2.90571 0.375102,-4.35811 0.08291,-0.81576 0.175602,-1.63096 0.281274,-2.44439 0.02887,-0.22222 0.170072,-1.19356 0.194801,-1.44815 0.02171,-0.22349 0.0289,-0.44804 0.04335,-0.67206 0.08885,-1.02461 0.102046,-2.05181 0.08913,-3.07907 -0.0273,-0.72723 -0.01614,-1.45527 -0.04184,-2.18245 -0.0053,-0.60927 -0.0024,-1.21774 -0.03493,-1.82647 -0.01874,-0.3013 -0.03181,-0.60092 -0.02047,-0.90252 0.0027,-0.20979 -0.03937,-0.41643 -0.07167,-0.62318 -0.03082,-0.12022 -0.01904,-0.24856 -0.05083,-0.36831 -0.01201,-0.0452 -0.03205,-0.0882 -0.04725,-0.13264 -0.02056,-0.0752 -0.0094,-0.10381 -0.140474,-0.10033 -0.01329,3.8e-4 0.0036,0.025 0.0056,0.0375 0.01327,0.0857 0.0043,0.0211 0.01699,0.12023 0.04707,0.25447 0.07216,0.51206 0.0992,0.769 0.05211,0.41544 0.09615,0.83183 0.129106,1.24905 0.05154,0.50857 0.07608,1.01885 0.0916,1.52938 0.01677,0.566 2.64e-4,1.13224 0.01262,1.69824 0.02071,0.70961 0.04111,1.4191 0.06729,2.12856 0.02079,0.88745 0.03803,1.77454 0.07729,2.66146 0.06701,1.0506 0.154832,2.09986 0.221846,3.15045 0.05612,1.10247 0.196089,2.19823 0.340343,3.29271 0.160959,1.36835 0.416609,2.7233 0.671305,4.07795 0.201081,1.11359 0.457547,2.21733 0.761936,3.30935 0.286356,0.97064 0.549054,1.94731 0.815971,2.92287 0.198643,0.74369 0.456521,1.47091 0.675742,2.20898 0.140232,0.47185 0.268783,0.94654 0.397661,1.42123 0.07979,0.32755 0.186366,0.64815 0.277409,0.97281 0.02708,0.13757 0.07989,0.2677 0.108851,0.40479 0.0372,0.16829 -0.01173,0.26065 0.359818,0.21418 0.0484,-0.006 -0.01168,-0.0921 -0.01751,-0.1381 -0.121907,-0.86283 -0.168846,-1.73353 -0.223876,-2.60195 -0.108161,-1.72517 -0.199215,-3.45115 -0.282372,-5.17755 -0.09616,-2.04068 -0.15585,-4.08286 -0.221806,-6.12463 -0.02323,-1.04177 -0.06027,-2.08372 -0.07169,-3.12572 -0.0097,-0.88334 0.0079,-1.76724 0.02088,-2.65047 0.03323,-1.43566 -0.027,-2.87048 -0.04602,-4.30573 -0.04356,-1.26108 -0.07536,-2.52244 -0.08002,-3.78421 0.0053,-0.7217 -0.04135,-1.44245 -0.09654,-2.16188 -0.03531,-0.46865 -0.07131,-0.93583 -0.06818,-1.40587 -0.03299,-0.22135 0.0042,-0.44143 0.01626,-0.66195 3.97e-4,-0.12602 -0.0015,-0.0679 0.0043,-0.17441 -0.0337,-0.14084 -0.02371,-0.14173 -0.279437,-0.17977 -0.0054,-9.5e-4 -0.01242,0.228 -0.01345,0.24651 -0.02567,0.38106 -0.03835,0.7627 -0.04132,1.14448 -0.01537,0.54714 0.03553,1.0923 0.08559,1.63663 0.04942,0.63428 0.123556,1.26645 0.18548,1.89967 0.0125,0.12286 0.02609,0.24563 0.03751,0.36859 0.03724,0.401 0.07019,0.80215 0.121309,1.20193 0.03616,0.28273 0.07963,0.56458 0.118419,0.847 0.103654,0.76379 0.213746,1.52685 0.338527,2.2878 0.113004,0.7798 0.219654,1.56025 0.337398,2.33943 0.126524,0.97122 0.292613,1.93713 0.471177,2.90079 0.225781,1.10619 0.452265,2.21195 0.663304,3.32078 0.258858,1.29018 0.561116,2.57194 0.868845,3.85225 0.321792,1.2499 0.667187,2.49413 0.978867,3.74637 0.23838,1.03844 0.579857,2.05034 0.895266,3.06875 0.222245,0.68075 0.416963,1.36901 0.611696,2.05716 0.09037,0.27927 0.137839,0.56732 0.1878,0.85449 0.0107,0.11663 0.0051,0.24028 0.308536,0.12539 0.05927,-0.0225 -0.01763,-0.12006 -0.0248,-0.18028 -0.01024,-0.086 -0.01793,-0.17219 -0.02739,-0.25823 -0.112535,-1.02335 0.03493,0.34803 -0.09965,-0.91202 -0.159722,-1.67302 -0.319438,-3.34627 -0.45768,-5.02104 -0.102221,-1.40139 -0.199137,-2.80362 -0.241943,-4.20799 -0.02658,-0.87207 -0.0251,-1.27769 -0.03202,-2.14286 3.97e-4,-0.32597 -1.32e-4,-0.65195 0.001,-0.97792 0.0033,-0.89995 0.01067,-0.87847 0.0051,-1.76582 -0.0048,-0.76453 -0.02754,-1.52833 -0.0505,-2.2925 -0.04199,-0.84942 -0.0357,-1.70005 -0.05686,-2.54988 -0.005,-0.20145 -0.03922,-0.99919 -0.04771,-1.20226 -0.06098,-1.02916 -0.09033,-2.05936 -0.123714,-3.08951 -0.02055,-0.72368 -0.05746,-1.44678 -0.0865,-2.17017 -0.02727,-0.51454 0.0014,-1.02994 -0.0396,-1.54373 -0.03278,-0.36062 -0.07512,-0.72032 -0.11296,-1.08048 -0.02459,-0.28149 -0.03952,-0.56419 -0.04559,-0.84657 -0.03008,-0.32628 -0.05176,-0.65483 -0.101737,-0.97898 -0.01975,-0.19024 -0.03893,-0.38056 -0.05946,-0.57072 -0.01114,-0.10309 -0.03484,-0.20408 -0.02557,-0.30747 -0.117389,-0.0492 -0.226059,-0.1251 -0.352169,-0.14758 -0.0317,-0.006 0.01802,0.0589 0.0238,0.0891 0.01122,0.0584 0.01988,0.1172 0.02713,0.17614 0.03837,0.31201 0.0695,0.62532 0.105636,0.93762 0.127838,1.07416 0.317134,2.14049 0.458489,3.21281 0.160141,1.30788 0.35865,2.61084 0.554025,3.91422 0.252354,1.56917 0.515558,3.13699 0.804032,4.70057 0.273522,1.51661 0.681796,3.00672 1.130599,4.48391 0.353229,1.23336 0.756803,2.45243 1.145816,3.67574 0.0533,0.17196 0.105151,0.34434 0.159888,0.5159 0.400853,1.25634 -0.02919,-0.12684 0.368709,1.14243 0.181494,0.57895 0.352777,1.16028 0.537189,1.73843 0.365646,1.16561 0.709841,2.337 1.045504,3.51066 0.229527,0.82978 0.387452,1.67454 0.542003,2.51908 0.08539,0.50171 0.174463,1.00227 0.273636,1.50159 0.02762,0.1455 0.06671,0.28936 0.08395,0.43657 0.0082,0.0702 0.01143,0.13712 0.0261,0.20656 9.49e-4,0.0814 -0.002,-0.004 0.006,-10e-4 0.11328,0.0394 0.208507,0.12617 0.327117,0.1472 0.03401,0.006 -0.02279,-0.0623 -0.02966,-0.0945 -0.03105,-0.14542 -0.04965,-0.35748 -0.06493,-0.49381 -0.08852,-1.166 -0.144172,-2.33428 -0.211135,-3.50163 -0.05728,-1.01551 -0.144818,-2.02994 -0.181833,-3.04648 -0.0086,-0.23672 -0.01008,-0.47363 -0.01511,-0.71044 0.0046,-1.31096 -0.0018,-2.62178 0.04366,-3.93217 0.06743,-1.68119 0.275524,-3.35281 0.408201,-5.02963 0.122844,-1.53737 0.216749,-3.07646 0.323661,-4.61483 0.09487,-1.27649 0.203061,-2.55206 0.3144,-3.82736 0.07266,-1.05851 0.119238,-2.11846 0.155975,-3.17857 0.0265,-0.79092 0.07223,-1.58102 0.08041,-2.37238 0.01255,-0.54543 0.02855,-1.09031 -0.0055,-1.6352 -0.02621,-0.28296 -0.02663,-0.56685 -0.02849,-0.8506 -0.0028,-0.23865 -0.0092,-0.28576 -0.417992,-0.30525 -0.03834,-0.002 -6e-5,0.0729 0.0012,0.10939 0.0018,0.0504 0.0054,0.10068 0.008,0.15102 0.0026,0.0594 0.003,0.11896 0.0078,0.17826 0.02573,0.32307 0.07532,0.64476 0.115807,0.96626 0.04314,0.34263 0.07223,0.60023 0.112345,0.94514 0.09604,0.79305 0.210173,1.5844 0.291447,2.37903 0.04627,0.45242 0.09117,1.04441 0.127284,1.49442 0.122732,1.64787 0.280645,3.29361 0.450487,4.9377 0.215791,1.84783 0.424856,3.69664 0.672257,5.54096 0.159623,1.32442 0.397601,2.63772 0.643083,3.94965 0.199291,1.00725 0.385023,2.01659 0.599895,3.02096 0.2643,1.09806 0.56216,2.18829 0.880711,3.27317 0.205511,0.66558 0.400138,1.33477 0.627629,1.99406 0.102417,0.2968 0.21161,0.59147 0.315373,0.88786 0.28233,0.84307 0.521059,1.69784 0.720199,2.56184 0.07388,0.28259 0.126293,0.56956 0.175156,0.85681 0.0079,0.0467 0.01792,0.0931 0.02258,0.14018 0.0012,0.0117 -0.01678,0.0306 -0.0052,0.035 0.08948,0.0342 0.186559,0.0466 0.279837,0.0699 -0.140047,-0.94045 -0.169559,-1.89025 -0.213637,-2.83773 -0.05227,-1.04124 -0.08659,-2.08352 -0.07076,-3.12607 0.01173,-0.77202 0.03392,-1.1324 0.06894,-1.91255 0.06365,-1.32051 0.178457,-2.6383 0.256438,-3.95795 0.03774,-0.63856 0.06246,-1.27776 0.09494,-1.91657 0.104414,-1.73884 0.105816,-3.48059 0.151672,-5.22116 0.05677,-1.54102 0.09447,-3.08219 0.174827,-4.62238 0.07681,-1.33991 0.10535,-2.68201 0.130556,-4.02358 0.02052,-0.90655 0.01288,-1.81358 -0.02329,-2.71964 -0.02643,-0.50642 -0.06035,-1.01219 -0.111376,-1.51691 -0.03808,-0.28192 -0.04631,-0.56579 -0.05386,-0.84949 -0.0082,-0.15759 8e-4,-0.31566 -0.02286,-0.47218 0.02425,-0.0995 0.06059,-0.0682 -0.357023,-0.18492 -0.02656,-0.007 0.01954,0.0493 0.02616,0.0749 0.03365,0.12975 0.04319,0.22565 0.06341,0.36225 0.111957,0.81103 0.194123,1.625 0.269613,2.43968 0.11508,1.13105 0.140241,2.26782 0.216791,3.40128 0.01888,0.27962 0.04402,0.55883 0.06603,0.83825 0.138872,1.71116 0.340398,3.4172 0.551958,5.12149 0.154325,1.22532 0.297665,2.45182 0.466195,3.67547 0.194319,1.27541 0.444024,2.54199 0.71403,3.80461 0.348492,1.69025 0.720703,3.37589 1.079556,5.06414 0.301494,1.45858 0.586051,2.92024 0.866945,4.3825 0.138969,0.71079 0.241584,1.42722 0.377699,2.13843 0.0188,0.0873 0.03774,0.17449 0.05641,0.26177 0.108765,0.50848 -0.006,-0.0287 0.07962,0.38355 0.0062,0.0299 -0.0063,0.0714 0.01959,0.0894 0.372591,0.25978 0.334856,0.2524 0.342493,0.0412 -0.04686,-0.95722 -0.06997,-1.91518 -0.0715,-2.87339 0.01103,-1.18201 0.04012,-2.36458 0.117638,-3.54454 0.05569,-0.8476 0.08529,-1.07975 0.16774,-1.91708 0.212372,-2.26993 0.481429,-4.53465 0.739474,-6.80019 0.04465,-0.37563 0.08829,-0.75138 0.133942,-1.12691 0.142574,-1.17294 0.122523,-0.92082 0.246148,-2.0871 0.101777,-0.96018 0.190982,-1.92167 0.284682,-2.88258 0.07403,-1.03175 0.182835,-2.06428 0.186998,-3.09948 0.0013,-0.31678 -0.02322,-0.9065 -0.03504,-1.23083 -0.06109,-0.9037 -0.125832,-1.80729 -0.193133,-2.71061 -0.05461,-0.58292 -0.07311,-1.16777 -0.08565,-1.75259 -0.01091,-0.41511 -0.0047,-0.8295 0.02545,-1.24366 0.01308,-0.20285 0.03585,-0.40639 0.02186,-0.60974 -0.03596,-0.1916 0.03499,-0.2304 -0.425442,-0.22839 -0.04893,2.5e-4 0.02321,0.0903 0.03366,0.13568 0.02079,0.0902 0.04004,0.18079 0.06007,0.27118 0.174578,0.91137 0.296985,1.83012 0.38057,2.75272 0.08829,1.28637 0.229853,2.56869 0.420626,3.8448 0.169148,1.24432 0.348742,2.48807 0.478186,3.7369 0.07646,0.73767 0.118377,1.31714 0.177236,2.05485 0.107412,1.34093 0.214154,2.6819 0.318817,4.02303 0.02407,0.30838 0.04403,0.61707 0.07194,0.92516 0.02845,0.31403 0.06476,0.62737 0.09714,0.94105 0.179889,1.72097 0.469441,3.42902 0.775854,5.13303 0.268989,1.5194 0.485162,3.04656 0.691347,4.57461 0.09134,0.71069 0.162479,1.42301 0.286979,2.12933 0.08865,0.41502 0.179987,0.82953 0.255249,1.24693 0.04308,0.29651 0.05953,0.59491 0.11987,0.88903 0.02849,0.15542 0.01454,0.16213 0.388058,0.15529 0.04064,-9.5e-4 0.0067,-0.0769 0.0104,-0.11539 0.0052,-0.0548 0.01095,-0.10957 0.01639,-0.16436 0.01155,-0.0721 0.02739,-0.1436 0.03459,-0.21616 0.0088,-0.0886 0.0089,-0.17779 0.01335,-0.26668 -0.01195,-0.71529 0.04753,-1.4277 0.102246,-2.14039 0.111438,-1.16279 0.167727,-2.32923 0.257373,-3.49354 0.139817,-1.45679 0.256293,-2.9155 0.413404,-4.37074 0.154667,-1.36487 0.311253,-2.72958 0.489925,-4.09183 0.164603,-1.28594 0.306909,-2.57466 0.446676,-3.86329 0.123774,-1.30851 0.231588,-2.6182 0.341311,-3.9278 0.111214,-1.39927 0.191728,-2.79973 0.244693,-4.202 0.03869,-1.00398 0.09564,-2.00734 0.09214,-3.01222 -5e-4,-0.5512 -0.0072,-1.10238 -0.0083,-1.65356 -0.01255,-0.2016 0.01409,-0.40657 -0.004,-0.60792 -0.01335,-0.14992 -0.02354,-0.03 -0.01185,-0.12582 -0.07346,0.20033 0.05704,-0.11708 -0.469882,-0.17372 -0.06334,-0.007 0.05159,0.11093 0.07156,0.16842 0.03024,0.0869 0.05733,0.17503 0.07881,0.26429 0.03789,0.15752 0.108754,0.58513 0.133915,0.73086 0.19681,1.17195 0.370165,2.34768 0.531754,3.5245 0.256258,1.81776 0.415798,3.64579 0.593306,5.47153 0.189163,2.11941 0.455858,4.23089 0.748617,6.33927 0.211085,1.65387 0.512437,3.29543 0.876904,4.92458 0.263001,1.30108 0.577687,2.59162 0.87428,3.88593 0.26482,1.08936 0.511167,2.18195 0.730449,3.28038 0.107809,0.57094 0.215099,1.14223 0.295973,1.71726 0.03234,0.19996 0.04953,0.40165 0.07604,0.60229 0.0035,0.0272 0.0087,0.0541 0.01225,0.0812 9.99e-4,0.007 -0.0059,0.0192 0.0015,0.0217 0.117131,0.0413 0.238765,0.0699 0.35815,0.10488 -0.0118,-0.5145 -0.03719,-1.02887 -0.05057,-1.54349 -0.0025,-1.09045 -0.03389,-2.18041 -0.07603,-3.27003 -0.03754,-1.3008 -0.134314,-2.59861 -0.209466,-3.89763 -0.05781,-1.05922 -0.06485,-2.12195 -0.01899,-3.18179 0.02314,-0.53552 0.07239,-1.18342 0.110009,-1.71797 0.07893,-1.61251 0.231152,-3.21954 0.406921,-4.82468 0.141097,-1.33976 0.282273,-2.67958 0.395486,-4.02177 0.08591,-1.33572 0.200284,-2.66961 0.266914,-4.00638 0.03104,-1.07773 0.07341,-2.15483 0.14422,-3.2309 0.04169,-0.60314 0.06058,-1.20723 0.07907,-1.81131 0.01444,-0.21853 0.0086,-0.4384 -0.02974,-0.65449 0.04503,-0.18738 0.03389,-0.12113 -0.520664,-0.23387 -0.04143,-0.008 0.01574,0.0791 0.02304,0.1188 0.01494,0.0817 0.03084,0.16327 0.04358,0.2453 0.04004,0.25826 0.07124,0.51768 0.106535,0.77656 0.127802,0.92794 0.179602,1.86292 0.258417,2.79517 0.276661,3.27253 -0.123918,-1.61236 0.143016,1.66317 0.13298,1.6275 0.258673,3.25575 0.434656,4.87966 0.224356,1.87254 0.472732,3.74231 0.725771,5.61154 0.238535,1.6285 0.452909,3.26035 0.736052,4.88259 0.21196,1.2412 0.442838,2.47935 0.667413,3.71853 0.191238,1.00158 0.38509,2.00266 0.546279,3.00906 0.09625,0.6783 0.19795,1.35418 0.347334,2.02388 0.147879,0.70417 0.268508,1.41324 0.420986,2.11651 0.05747,0.27201 0.107199,0.54585 0.171075,0.81664 0.08166,0.2023 -0.07364,0.10112 0.441439,0.27536 0.01409,0.005 0.03179,-0.0547 0.05697,-0.12687 0.142091,-0.60241 0.276636,-1.20646 0.412709,-1.81013 0.181617,-0.85848 0.377133,-1.71619 0.510048,-2.58316 0.02984,-0.19449 0.0528,-0.38987 0.0792,-0.5848 0.172075,-1.78562 0.295913,-3.57478 0.468188,-5.3604 0.03179,-0.37851 0.06215,-0.75713 0.09544,-1.13552 0.119695,-1.36045 0.09073,-0.89054 0.197465,-2.25858 0.08439,-1.08158 0.150374,-2.1633 0.205178,-3.24653 0.110388,-2.00863 0.164803,-4.01969 0.23814,-6.02977 0.05191,-1.64767 0.136798,-3.29431 0.189054,-4.9419 0.0121,-0.7913 0.04228,-1.58328 0.03419,-2.37475 -0.01579,-0.33754 -0.02444,-0.67539 -0.02789,-1.01324 -0.002,-0.14793 -0.0045,-0.29571 -0.0097,-0.4434 -3.95e-4,-0.0113 0.01279,-0.0284 0.0025,-0.0337 -0.10516,-0.0534 -0.219637,-0.0882 -0.329451,-0.13227 0.0052,0.0203 0.0126,0.0402 0.01579,0.0608 0.02589,0.16742 0.02409,0.34438 0.02959,0.51265 0.007,0.21608 0.01279,0.4322 0.01954,0.64828 0.02514,0.80118 0.04078,1.60259 0.07775,2.40339 0.111903,1.2705 0.217019,2.54128 0.34425,3.81052 0.13429,1.26297 0.263841,2.52642 0.404623,3.78876 0.09036,0.90771 0.227784,1.80969 0.362123,2.71208 0.124588,0.90312 0.284528,1.80128 0.429818,2.70153 0.140402,0.91009 0.268438,1.82201 0.380886,2.73559 0.08945,0.83787 0.227254,1.66989 0.357375,2.50265 0.13341,0.81044 0.209816,1.62852 0.349158,2.43813 0.03369,0.19585 0.07316,0.39077 0.109749,0.58616 0.194081,1.0677 0.395035,2.13419 0.607755,3.19868 0.121824,0.63826 0.284958,1.26881 0.405317,1.90728 0.09589,0.49976 0.147604,1.00503 0.177063,1.51182 0.002,0.0463 0.0025,0.0927 0.0054,0.13898 2.65e-4,0.005 0.01939,0.20269 0.02549,0.20522 0.391132,0.16243 0.349967,0.21243 0.346934,-0.0159 -0.02394,-0.77514 -0.08227,-1.54861 -0.112758,-2.32368 -0.01389,-0.25966 -0.02504,-0.51946 -0.04163,-0.77897 -0.06673,-1.04491 -0.14738,-2.08913 -0.213669,-3.13408 -0.04973,-0.78408 -0.08134,-1.43314 -0.122094,-2.21622 -0.09028,-2.43803 -0.127882,-4.87794 -0.143366,-7.31739 -0.02749,-1.65124 -0.01055,-3.30285 -0.03064,-4.95413 -0.005,-0.40816 -0.03094,-1.6046 -0.03983,-2.02853 -0.04383,-1.70419 -0.125017,-3.40724 -0.172979,-5.11134 -0.03154,-1.07966 -0.08618,-2.15844 -0.100068,-3.23848 0.0054,-0.41694 0.0062,-0.83371 0.004,-1.25053 -0.0015,-0.33985 0.01274,-0.0151 -0.002,-0.2885 -0.01614,-0.24983 -0.100352,-0.20552 -0.516505,-0.32215 -0.02519,-0.007 0.004,0.0498 0.007,0.0746 0.01115,0.0852 0.02194,0.12827 0.04004,0.21545 0.113192,0.46888 0.196056,0.94387 0.283488,1.41764 0.124653,0.726 0.183891,1.45952 0.249116,2.19185 0.06636,0.80567 0.179267,1.60653 0.293314,2.40703 0.124908,0.90819 0.274891,1.81292 0.448686,2.71377 0.241963,1.20289 0.428243,2.41469 0.652128,3.62053 0.24013,1.24857 0.47703,2.49751 0.750672,3.73992 0.337063,1.48323 0.669867,2.96729 1.013922,4.4491 0.321669,1.42196 0.659361,2.84058 0.961272,4.26649 0.21175,0.98366 0.442938,1.96342 0.654808,2.94704 0.164253,0.83513 0.3569,1.6646 0.541351,2.49579 0.05074,0.25923 0.110698,0.51676 0.178997,0.77231 0.0103,0.0385 0.02124,0.0768 0.03229,0.11512 0.003,0.0109 -0.001,0.0291 0.01025,0.0325 0.131085,0.0388 0.267374,0.0595 0.401058,0.0892 -0.0065,-0.0643 -0.01134,-0.12878 -0.01949,-0.19291 -0.05451,-0.42901 -0.136234,-0.85523 -0.204348,-1.28232 -0.233532,-1.46424 0.05688,0.29936 -0.221911,-1.37711 -0.281894,-1.69706 -0.456328,-3.40741 -0.595101,-5.11964 -0.101356,-1.70485 -0.130355,-3.41265 -0.179577,-5.11936 -0.04463,-0.98743 -0.04178,-1.97715 -0.102506,-2.964 -0.02099,-0.34075 -0.09222,-1.12268 -0.122459,-1.46526 -0.05302,-0.66247 -0.147794,-1.32076 -0.227549,-1.98048 -0.06924,-0.57279 -0.126767,-1.14693 -0.192042,-1.72014 -0.09162,-1.02304 -0.254824,-2.03782 -0.41154,-3.05309 -0.115681,-0.80917 -0.187834,-1.62329 -0.253979,-2.43724 -0.04153,-0.72296 -0.09417,-1.44528 -0.138678,-2.16804 -0.0073,-0.0766 -0.04563,-0.50299 -0.06444,-0.5926 -0.01969,-0.094 -0.06167,-0.1828 -0.08213,-0.2766 -0.04328,-0.19854 -0.04048,-0.41312 -0.05117,-0.61502 -0.02069,-0.14839 -0.02889,-0.29831 -0.04633,-0.44686 -0.01339,-0.11396 -0.04038,-0.22544 -0.05319,-0.33963 -0.04423,-0.22988 -0.03004,-0.46115 -0.01659,-0.69261 -0.004,-0.13866 0.0078,-0.27717 0.0094,-0.41568 -0.0061,-0.0908 0.04363,-0.0741 -0.204772,-0.10825 -0.01774,-0.002 9.99e-4,0.034 4.99e-4,0.051 -0.004,0.17634 -0.0071,-0.0161 0.001,0.2202 0.02224,0.62611 0.14589,1.24345 0.261766,1.85862 0.209811,1.15275 0.377738,2.31178 0.566131,3.46772 0.180987,1.0081 0.327052,2.02185 0.507994,3.02991 0.100062,0.55747 0.212644,1.11284 0.31771,1.66948 0.329585,1.77501 0.658881,3.55003 0.985927,5.32545 0.259962,1.44448 0.511902,2.89092 0.801783,4.33037 0.163698,0.81287 0.225789,1.06125 0.407401,1.85483 0.405612,1.71904 0.932088,3.40887 1.418764,5.108 0.332534,1.10732 0.632921,2.2222 0.920792,3.34055 0.130171,0.47241 0.262841,0.94429 0.41188,1.41168 0.03919,0.0863 0.04353,0.19966 0.110413,0.2743 0.02704,0.0302 0.08314,0.0699 0.116086,0.0946 0.02649,0.011 0.05303,0.0219 0.07954,0.0329 0,0 -0.01864,-0.007 -0.01864,-0.007 v 0 c 0.04428,0.0211 0.08853,0.0421 0.13279,0.0631 0.01594,10e-4 0.07674,0.0117 0.0941,-9.5e-4 0.03659,-0.0262 -0.05896,-0.22957 -0.06652,-0.25744 -0.176439,-0.47394 -0.331625,-0.95475 -0.477475,-1.43795 -0.315926,-1.13243 -0.650799,-2.25964 -1.008054,-3.38101 -0.513561,-1.69654 -1.017791,-3.39646 -1.440072,-5.116 -0.171295,-0.69596 -0.291484,-1.16408 -0.444197,-1.87067 -0.310288,-1.4357 -0.543635,-2.88433 -0.800188,-4.32913 -0.306704,-1.77574 -0.642677,-3.54657 -0.971118,-5.31876 -0.282823,-1.55872 -0.559124,-3.11912 -0.795889,-4.68478 -0.180847,-1.15989 -0.348424,-2.32246 -0.578552,-3.47472 -0.0015,-0.007 -0.167662,-0.78896 -0.171915,-0.81193 -0.06545,-0.35359 -0.102037,-0.71132 -0.143391,-1.06787 -0.0064,-0.0877 -0.0117,-0.1418 -0.0138,-0.22527 -4e-4,-0.0169 0.01369,-0.0396 2.6e-4,-0.0507 -0.06051,-0.0504 -0.136373,-0.0813 -0.205592,-0.12036 -0.002,-0.001 0.0015,0.004 0.002,0.006 -5e-4,0.008 -0.0015,0.0163 -0.002,0.0245 1.1e-4,0.14227 0.01265,0.28457 0.01279,0.42689 0.02119,0.2423 0.03869,0.48573 0.0806,0.72568 0.06935,0.27362 0.135403,0.54805 0.18483,0.82566 0.02949,0.21738 0.02794,0.17442 0.04053,0.39898 0.004,0.0717 0.0143,0.14366 0.0092,0.21534 -0.0051,0.0738 -0.03524,0.14489 -0.03969,0.21877 -0.0114,0.18999 0.03799,0.38051 0.01889,0.57064 0.05327,0.72537 0.10664,1.45077 0.156206,2.17635 0.03988,0.79756 0.05633,1.59655 0.151503,2.39057 0.112482,1.00887 0.244902,2.01542 0.352097,3.02483 0.162643,1.2275 0.283663,2.4587 0.401473,3.69073 0.133295,1.47641 0.200055,2.95633 0.246787,4.43737 0.05903,1.71678 0.13118,3.43342 0.23681,5.14824 0.02094,0.30801 0.03694,0.61636 0.06286,0.92403 0.118235,1.40348 0.346059,2.79704 0.523917,4.19413 0.209386,1.55772 -0.003,-0.013 0.18539,1.36004 0.0572,0.41743 0.124983,0.83705 0.15767,1.25725 0.0045,0.0607 0.005,0.12153 0.0076,0.18229 0.131321,0.0897 0.261392,0.18113 0.393962,0.26919 0.013,0.009 -0.02744,-0.0174 -0.03489,-0.0307 -0.02124,-0.038 -0.03569,-0.0792 -0.04953,-0.12017 -0.08674,-0.25661 -0.139373,-0.52334 -0.208617,-0.7842 -0.200044,-0.82993 -0.381181,-1.6632 -0.549852,-2.49934 -0.226285,-0.98983 -0.474716,-1.97493 -0.695472,-2.9659 -0.348754,-1.43262 -0.693534,-2.86612 -1.03488,-4.30035 -0.344445,-1.4818 -0.662429,-2.96906 -1.014761,-4.44925 -0.277731,-1.24794 -0.536703,-2.49954 -0.782085,-3.75359 -0.214699,-1.20681 -0.426019,-2.41416 -0.64988,-3.61948 -0.152922,-0.89694 -0.282073,-1.79713 -0.414448,-2.69697 -0.113842,-0.80099 -0.232632,-1.60204 -0.298583,-2.40819 -0.06105,-0.7293 -0.108344,-1.45969 -0.227274,-2.18341 -0.0764,-0.55967 -0.0125,-0.0778 -0.07859,-0.61371 -0.01869,-0.15155 -0.04633,-0.3022 -0.0589,-0.45433 -0.0054,-0.0653 -0.003,-0.20606 -0.0025,-0.2783 0.0015,-0.0105 0.01889,-0.15548 0.02429,-0.17652 0.0045,-0.0172 0.03579,-0.0391 0.02059,-0.0494 -0.565626,-0.38136 -0.502255,-0.41096 -0.464849,-0.16734 0.0065,0.17093 -0.0015,0.33841 -0.0045,0.50934 -0.0058,0.34457 0.01364,0.68916 0.0144,1.03367 0.02354,1.0917 0.120639,2.18012 0.165577,3.27112 0.08507,1.7135 0.170486,3.42694 0.236281,5.14124 0.08243,2.33978 0.156591,4.68013 0.152523,7.02154 0.03784,2.44845 0.06901,4.89744 0.195151,7.34366 0.131105,2.0325 0.259822,4.06589 0.321064,6.10155 0.02119,0.7672 0.04783,1.53422 0.06869,2.30141 -0.001,0.2374 -0.03559,0.12831 0.333904,0.33285 0.01244,0.007 -0.01264,-0.0246 -0.01709,-0.0376 -0.03549,-0.10261 -0.04633,-0.21132 -0.05723,-0.3181 -0.05648,-0.50806 -0.102606,-1.01799 -0.191148,-1.52213 -0.138203,-0.64703 -0.33039,-1.28273 -0.458642,-1.93203 -0.228444,-1.06696 -0.445012,-2.1363 -0.634275,-3.21023 -0.163968,-1.00005 -0.295434,-2.00349 -0.424985,-3.008 -0.128676,-0.83353 -0.263086,-1.66642 -0.361588,-2.50383 -0.115447,-0.91528 -0.249326,-1.82799 -0.388814,-2.74024 -0.146204,-0.89757 -0.293099,-1.79492 -0.417552,-2.69553 -0.138942,-0.90754 -0.285327,-1.81417 -0.393061,-2.72574 -0.154557,-1.26782 -0.303411,-2.53616 -0.441264,-3.80573 -0.130106,-1.2594 -0.208031,-2.52205 -0.292634,-3.78481 -0.03988,-0.79775 -0.03394,-1.59606 -0.06013,-2.39424 -0.0045,-0.39737 0.0073,-0.79416 0.02014,-1.19123 -0.116611,-0.0653 -0.227374,-0.14117 -0.349828,-0.19603 -0.0113,-0.005 -0.0108,0.0214 -0.01554,0.0324 -0.0093,0.0216 -0.02029,0.0428 -0.02649,0.0654 -0.03099,0.11317 -0.03499,0.23266 -0.03664,0.34873 -0.0015,0.33083 -0.0073,0.66165 -0.01614,0.99236 0.0081,0.8018 0.04313,1.60352 0.03264,2.40559 -0.01369,1.65861 -0.06897,3.31672 -0.120809,4.97456 -0.10504,3.59778 0.05271,-1.70978 -0.06632,1.97653 -0.04378,1.35544 -0.06869,2.71141 -0.14471,4.06582 -0.01364,0.27291 -0.09223,1.85876 -0.108689,2.13274 -0.09052,1.50657 -0.227559,3.01059 -0.375983,4.51285 -0.168872,1.77308 -0.339437,3.5466 -0.55636,5.31504 -0.141842,1.0629 -0.338692,2.11627 -0.598104,3.15934 -0.136809,0.60271 -0.262986,1.2074 -0.406087,1.80874 -0.0078,0.0244 -0.01459,0.0491 -0.02349,0.0732 -0.0025,0.007 -0.01819,0.0168 -0.01125,0.0211 0.123074,0.0766 0.256753,0.1368 0.382201,0.20987 0.0045,0.002 -0.0112,0.008 -0.01444,0.004 -0.01184,-0.0133 0.01,-0.0402 -0.0015,-0.0524 -0.07579,-0.27474 -0.142911,-0.5514 -0.204008,-0.82946 -0.13417,-0.70038 -0.256438,-1.40278 -0.392167,-2.10291 -0.115397,-0.67286 -0.245023,-1.34353 -0.340781,-2.01936 -0.173755,-1.01404 -0.402464,-2.01841 -0.590248,-3.03015 -0.102816,-0.57184 -0.131575,-0.71608 -0.223675,-1.29201 -0.03344,-0.20903 -0.06075,-0.41893 -0.09604,-0.62768 -0.101217,-0.59881 -0.232732,-1.19296 -0.333179,-1.79193 -0.29119,-1.63335 -0.597734,-3.26508 -0.800713,-4.9112 -0.26331,-1.86033 -0.496302,-3.72465 -0.688605,-5.59288 -0.176263,-1.62596 -0.327471,-3.25394 -0.447441,-4.8846 -0.06687,-0.81463 -0.141061,-1.62927 -0.193877,-2.44487 -0.0062,-0.0953 -0.06998,-1.29932 -0.07979,-1.44136 -0.01235,-0.1784 -0.03049,-0.35638 -0.04573,-0.53457 -0.04004,-0.48567 -0.02749,-0.33088 -0.06179,-0.75657 -0.0062,-0.0777 -0.0133,-0.15542 -0.01874,-0.23321 -0.02124,-0.30511 0.06286,-0.10758 -0.540501,-0.39902 -0.0085,-0.004 2.65e-4,0.0182 5e-4,0.0273 0.02234,0.21831 0.05511,0.43632 0.05181,0.65616 0.003,0.61123 -0.0089,1.22232 -0.03009,1.83322 -0.03444,1.08395 -0.08044,2.16749 -0.101882,3.25179 -0.05457,1.34312 -0.11885,2.68619 -0.221801,4.02684 -0.111958,1.34995 -0.219592,2.70023 -0.337552,4.04971 -0.153452,1.61637 -0.267494,3.23541 -0.344385,4.85678 -0.08827,1.62846 -0.182781,3.25948 -0.117676,4.89049 0.08709,1.29999 0.176004,2.59985 0.220297,3.902 0.03479,1.08336 0.06805,2.16653 0.03634,3.25049 0.005,0.31846 0.0109,0.63688 0.01764,0.95531 0.003,0.13911 0.0092,0.29194 0.003,0.43201 -0.002,0.0428 -0.0082,0.0853 -0.0123,0.12798 0.112842,0.0716 0.22549,0.1434 0.338527,0.21468 0.0093,0.006 -0.02234,-0.009 -0.02734,-0.0184 -0.01409,-0.0269 -0.01994,-0.057 -0.02749,-0.0861 -0.05289,-0.20402 -0.08497,-0.41285 -0.117626,-0.62036 -0.0734,-0.58142 -0.169656,-1.15992 -0.316315,-1.72924 -0.270328,-1.09783 -0.514491,-2.20131 -0.775332,-3.30117 -0.302831,-1.30124 -0.618692,-2.59968 -0.911941,-3.90285 -0.327651,-1.63569 -0.640458,-3.27452 -0.879328,-4.92441 -0.302521,-2.10416 -0.543935,-4.21562 -0.734318,-6.33161 -0.08705,-0.98106 -0.182541,-1.96126 -0.274726,-2.94189 -0.04433,-0.47174 -0.117211,-1.28291 -0.17249,-1.75947 -0.02899,-0.24991 -0.06549,-0.499 -0.09823,-0.74849 -0.08489,-0.67387 -0.153027,-1.34965 -0.247576,-2.02236 -0.04263,-0.30354 -0.109544,-0.69745 -0.143781,-1.00264 -0.01684,-0.15024 -0.02564,-0.30121 -0.03844,-0.45181 -0.04913,-0.50966 -0.02019,-0.23469 -0.0744,-0.70613 -0.0093,-0.0812 -0.01894,-0.16242 -0.02779,-0.24369 -0.0054,-0.0498 0.02259,-0.11426 -0.01494,-0.14938 -0.439729,-0.41189 -0.348444,-0.45191 -0.558135,-0.3115 -0.0071,0.0393 -0.02189,0.0776 -0.02539,0.1174 -0.003,0.035 0.0015,0.0702 0.001,0.10534 -0.001,0.16799 -0.001,0.33587 0.004,0.50386 0.0136,0.55807 0.03434,1.11587 0.05088,1.67385 0.01514,1.01241 -0.0025,2.02442 -0.03754,3.03644 -0.03379,1.40149 -0.100487,2.80285 -0.247002,4.19826 -0.09896,1.31036 -0.194496,2.62116 -0.338032,3.928 -0.134574,1.29138 -0.259637,2.58378 -0.427524,3.87179 -0.164877,1.36846 -0.314891,2.73864 -0.456792,4.10942 -0.143391,1.46147 -0.256708,2.9251 -0.380107,4.38815 -0.101536,1.16338 -0.17079,2.32838 -0.260031,3.49257 -0.01704,0.2368 -0.04533,0.60406 -0.05667,0.84962 -0.01999,0.43318 -0.01145,0.86694 -0.02864,1.30018 -0.0077,0.16399 -0.007,0.3285 -0.02254,0.492 -0.0051,0.0536 -0.01759,0.10623 -0.02664,0.15931 -0.0062,0.0365 -0.04508,0.0819 -0.01904,0.10926 0.09809,0.10304 0.230782,0.17172 0.35554,0.24422 0.01449,0.008 -0.01,-0.0309 -0.01499,-0.0463 -0.03334,-0.29292 -0.05931,-0.58645 -0.09812,-0.87878 -0.05733,-0.42578 -0.201859,-0.83348 -0.274836,-1.25694 -0.13197,-0.72046 -0.244405,-1.44423 -0.368175,-2.16598 -0.243417,-1.53105 -0.460821,-3.066 -0.729589,-4.59329 -0.143739,-0.82526 -0.297236,-1.64916 -0.428777,-2.47628 -0.123667,-0.77762 -0.148937,-0.98421 -0.250763,-1.77206 -0.03835,-0.29671 -0.07517,-0.59358 -0.11275,-0.89038 -0.195469,-1.96245 -0.350369,-3.92812 -0.499413,-5.89419 -0.08606,-1.02772 -0.173453,-2.05506 -0.283268,-3.08081 -0.110953,-1.03636 -0.09761,-0.8393 -0.217275,-1.84205 -0.03353,-0.28095 -0.06483,-0.56214 -0.09725,-0.8432 -0.153693,-1.27266 -0.312421,-2.54568 -0.383578,-3.82556 -0.03016,-0.41277 -0.04567,-0.68614 -0.09225,-1.09386 -0.06227,-0.54501 -0.158138,-1.08634 -0.222341,-1.63115 -0.0095,-0.086 -0.01771,-0.1722 -0.0285,-0.25809 -0.0055,-0.0434 0.01381,-0.10036 -0.02023,-0.12986 -0.538932,-0.46713 -0.394328,-0.3986 -0.45907,-0.19143 -0.02986,0.19803 -0.02576,0.39938 -0.0416,0.59855 -0.02283,0.41753 -0.03211,0.83477 -0.01582,1.25284 0.01094,0.58684 0.03667,1.17364 0.09051,1.75847 0.09229,0.91053 0.181313,1.82177 0.247197,2.73434 0.02975,0.52111 0.04556,0.70589 0.05354,1.237 0.01567,1.04315 -0.04814,2.08535 -0.128141,3.12524 -0.163923,2.04684 -0.360278,4.0909 -0.592185,6.13188 -0.120079,1.16862 -0.241279,2.33745 -0.374716,3.50477 -0.125621,1.09895 -0.26533,2.19651 -0.359586,3.29856 -0.14285,1.8272 -0.243889,3.65763 -0.230483,5.4906 -0.01207,0.93743 -0.02171,1.87538 -0.05137,2.81233 -0.01118,0.17643 -0.03561,0.15627 0.305009,0.2627 0.03399,0.0106 -0.02843,-0.0625 -0.03851,-0.0952 -0.06511,-0.21081 -0.09251,-0.4309 -0.138637,-0.64553 -0.147658,-0.72113 -0.293583,-1.44256 -0.434524,-2.16491 -0.327162,-1.47391 -0.662494,-2.94626 -0.960751,-4.42582 -0.354952,-1.67916 -0.683994,-3.36303 -1.034138,-5.04309 -0.247859,-1.25709 -0.486386,-2.51609 -0.67118,-3.7832 -0.182385,-1.23184 -0.339618,-2.46679 -0.517525,-3.69923 -0.112049,-0.81787 -0.223053,-1.63585 -0.310425,-2.45652 -0.09213,-0.86538 -0.09153,-0.94307 -0.155165,-1.81145 -0.02052,-0.28003 -0.04075,-0.56008 -0.06112,-0.84012 -0.0751,-1.40184 -0.109963,-2.80543 -0.211462,-4.20602 -0.05569,-0.80385 -0.130381,-1.60623 -0.201922,-2.40892 -0.01654,-0.19875 -0.01246,-0.18051 -0.03481,-0.35407 -0.0035,-0.027 0.01077,-0.0639 -0.01168,-0.0808 -0.207442,-0.15639 -0.378891,-0.37299 -0.426384,-0.17101 -0.02759,0.14941 -0.01481,0.30204 -0.0194,0.45296 0.0053,0.28253 0.0188,0.56523 0.03963,0.84708 0.06295,0.51031 0.125004,1.02047 0.15371,1.53396 0.04978,0.91363 0.08735,1.82815 0.07751,2.74325 -0.008,1.3468 -0.03347,2.69319 -0.09675,4.03881 -0.06067,1.54399 -0.137425,3.08766 -0.155344,4.63278 -0.02273,1.7448 -0.0602,3.48956 -0.124644,5.23345 -0.08677,1.962 -0.209959,3.92191 -0.33613,5.88192 -0.02915,0.53234 -0.0792,1.36341 -0.0915,1.90297 -0.02377,1.04232 0.02004,2.08579 0.06861,3.1268 0.0589,0.94438 0.13587,1.88765 0.200371,2.83159 0.09577,0.0642 0.186462,0.13582 0.287299,0.19258 0.01767,0.01 -0.02617,-0.031 -0.033,-0.0494 -0.01784,-0.0481 -0.02796,-0.0984 -0.04031,-0.14803 -0.07138,-0.28666 -0.133739,-0.57556 -0.191585,-0.86492 -0.05384,-0.23466 -0.13374,-0.59166 -0.195183,-0.82385 -0.155113,-0.58615 -0.350428,-1.16267 -0.529276,-1.7424 -0.330655,-0.96029 -0.690625,-1.91211 -0.962835,-2.88969 -0.306773,-1.08052 -0.623242,-2.15932 -0.851178,-3.25816 -0.217526,-1.00682 -0.391553,-2.02186 -0.615328,-3.02765 -0.08781,-0.42944 -0.170683,-0.82163 -0.247708,-1.25397 -0.160766,-0.90237 -0.285149,-1.81039 -0.437115,-2.71407 -0.27888,-1.84383 -0.503156,-3.69428 -0.69006,-5.54856 -0.05038,-0.58068 -0.09625,-1.16171 -0.148516,-1.74224 -0.0954,-1.05962 -0.212761,-2.11767 -0.270448,-3.18013 -0.04756,-0.72013 -0.09562,-1.44025 -0.167141,-2.15869 -0.0486,-0.4882 -0.07764,-0.66736 -0.132253,-1.14861 -0.02033,-0.17913 -0.03843,-0.35848 -0.05764,-0.53773 -0.06859,-0.67797 -0.151585,-1.35959 -0.143206,-2.04122 0.0046,-0.0458 0.007,-0.0919 0.01379,-0.13742 0.0049,-0.0329 0.04555,-0.0739 0.02107,-0.0977 -0.409771,-0.39734 -0.39802,-0.35152 -0.398634,-0.0936 0.0089,0.28508 0.02588,0.56992 0.03392,0.85504 0.02647,0.54719 0.03955,1.09442 0.02754,1.64229 -0.01798,0.79379 -0.03013,1.58775 -0.0613,2.38122 -0.0189,1.06589 -0.05394,2.1319 -0.114724,3.19638 -0.09734,1.27817 -0.232487,2.5537 -0.303669,3.8335 -0.07937,1.54604 -0.167914,3.09176 -0.279092,4.63604 -0.133215,1.67512 -0.322309,3.34609 -0.423876,5.02331 -0.011,0.23105 -0.02535,0.46197 -0.03301,0.69315 -0.0359,1.08315 0.0093,2.16714 0.0086,3.25041 0.0045,0.36268 0.0095,1.00404 0.02502,1.37239 0.03349,0.79524 0.126657,1.58746 0.164345,2.3825 0.08019,1.16337 0.154457,2.32686 0.189967,3.49241 0.01383,0.2279 0.0099,0.28825 0.04428,0.4912 0.0053,0.0314 -0.0028,0.0718 0.022,0.0932 0.106748,0.0923 0.231341,0.16512 0.356284,0.23378 0.0205,0.0112 0.0101,-0.0833 -0.0018,-0.0674 -0.04668,-0.22555 -0.140473,-0.44183 -0.1715,-0.67137 -0.107469,-0.5025 -0.201045,-1.00711 -0.296838,-1.51176 -0.161704,-0.8495 -0.327839,-1.70007 -0.567563,-2.53337 -0.223986,-0.74737 -0.462067,-1.49107 -0.676877,-2.24094 -0.0622,-0.21713 -0.118027,-0.43588 -0.179879,-0.65311 -0.05833,-0.20487 -0.120444,-0.40875 -0.180666,-0.61313 -0.318393,-1.13501 -0.674859,-2.25959 -1.034744,-3.3833 -0.398787,-1.23124 -0.82385,-2.45479 -1.190472,-3.69532 -0.01862,-0.0633 -0.401226,-1.36274 -0.424057,-1.44392 -0.211304,-0.75134 -0.394678,-1.5082 -0.561599,-2.26944 -0.05681,-0.25909 -0.110987,-0.51871 -0.166481,-0.77806 -0.30256,-1.55703 -0.552275,-3.12188 -0.78293,-4.6899 -0.196189,-1.29936 -0.387691,-2.59969 -0.535403,-3.90497 -0.04842,-0.38659 -0.09081,-0.77388 -0.143108,-1.16001 -0.09131,-0.67422 -0.221071,-1.34481 -0.25783,-2.02494 -0.02711,-0.30578 -0.04709,-0.61034 -0.06165,-0.91683 -0.0027,-0.0567 -0.0049,-0.11334 -0.0083,-0.16997 -0.0017,-0.0292 0.01753,-0.0697 -0.0068,-0.0877 -0.109429,-0.0809 -0.243967,-0.12529 -0.365951,-0.18793 9.5e-4,0.28285 -0.0015,0.56579 0.01375,0.84848 -0.0094,0.31072 0.0022,0.62198 0.01153,0.93264 -0.0014,0.28086 -0.01405,0.56219 0.02241,0.84198 0.04737,0.36179 0.103794,0.72257 0.129901,1.08663 0.04811,0.51687 0.04418,1.03621 0.06724,1.55441 0.03232,0.72819 0.08823,1.45531 0.11504,2.18378 0.05181,1.03555 0.08745,2.07182 0.158936,3.10645 0.05396,1.25598 0.08612,2.51263 0.139425,3.76866 0.01891,0.40301 0.05225,1.09031 0.06626,1.48698 0.04227,1.19739 0.04364,2.39558 0.0715,3.59326 0.02401,1.08635 0.03998,2.17396 0.0923,3.25952 0.04163,0.86374 0.07846,1.21052 0.145657,2.0669 0.0274,0.34925 0.05376,0.69858 0.08065,1.04787 0.136062,1.66617 0.28344,3.33138 0.408798,4.99831 0.04419,0.52054 0.03542,0.43708 0.08047,0.90319 0.0083,0.086 0.01714,0.172 0.0257,0.25801 0.0058,0.0584 -0.02144,0.12959 0.01742,0.17518 0.08109,0.0951 0.2019,0.1539 0.314259,0.21382 0.01898,0.0101 -0.01499,-0.0388 -0.02249,-0.0582 -0.0799,-0.29387 -0.155527,-0.58898 -0.241982,-0.88108 -0.220232,-0.69337 -0.434602,-1.38843 -0.661653,-2.07993 -0.323249,-1.01374 -0.616255,-2.03672 -0.887351,-3.06413 -0.326897,-1.25323 -0.681852,-2.49966 -0.998653,-3.75522 -0.31942,-1.2817 -0.65301,-2.56147 -0.888019,-3.86029 -0.116282,-0.58274 -0.21781,-1.16791 -0.333267,-1.75072 -0.103845,-0.5242 -0.23046,-1.04424 -0.329109,-1.56942 -0.167659,-0.9623 -0.326007,-1.92651 -0.457684,-2.89385 -0.09801,-0.77718 -0.198611,-1.55438 -0.314529,-2.32931 -0.133998,-0.76417 -0.259388,-1.52959 -0.362097,-2.29821 -0.108743,-0.80058 -0.21305,-1.60117 -0.258227,-2.40785 -0.05831,-0.63256 -0.133767,-1.2637 -0.18043,-1.89722 -0.04981,-0.54185 -0.09518,-1.08507 -0.0755,-1.62956 0.01144,-0.37628 0.01404,-0.7546 0.0705,-1.12786 0.01104,-0.0587 0.02046,-0.11762 0.03182,-0.17624 0.0032,-0.0164 0.0241,-0.0375 0.01126,-0.049 -0.24154,-0.2148 -0.184487,-0.20952 -0.273826,-0.10303 -0.01306,0.0529 -0.03117,0.10494 -0.03981,0.1587 -0.0349,0.21721 -0.0034,0.43885 -0.03554,0.65631 0.0018,0.46876 0.02715,0.93556 0.05761,1.40335 0.02991,0.71588 0.07525,1.43099 0.07141,2.14793 0.03621,1.2637 0.0714,2.52743 0.0947,3.79142 0.03587,1.43737 0.03431,2.87532 0.0628,4.31285 0.01344,1.93632 0.04045,3.87262 0.113659,5.80786 0.06279,2.0373 0.112682,4.07496 0.193108,6.11172 0.10549,1.72632 0.204719,3.45296 0.288258,5.18036 0.03949,0.86306 0.07658,1.72759 0.184781,2.58592 0.005,0.0452 -0.01826,0.10283 0.01494,0.13551 0.458764,0.45154 0.3565,0.2935 0.32527,0.106 -0.03412,-0.14513 -0.08148,-0.28541 -0.141993,-0.42279 -0.114907,-0.32194 -0.217588,-0.64772 -0.295479,-0.97973 -0.134907,-0.48462 -0.301835,-0.95988 -0.443704,-1.44263 -0.22137,-0.74118 -0.469933,-1.47431 -0.690918,-2.21554 -0.286373,-0.97528 -0.548291,-1.95658 -0.835222,-2.93171 -0.331454,-1.09789 -0.619449,-2.20793 -0.820749,-3.33468 -0.266215,-1.35385 -0.526548,-2.71061 -0.679822,-4.081 -0.120783,-1.09482 -0.256738,-2.1886 -0.330774,-3.2875 -0.07891,-1.04805 -0.173898,-2.09549 -0.21264,-3.1458 -0.0527,-0.88802 -0.0722,-1.77626 -0.08629,-2.66553 -0.02326,-0.71123 -0.06353,-1.4218 -0.07747,-2.13332 -0.01664,-0.56832 -0.01344,-1.13698 -0.02737,-1.70538 -0.01405,-0.51204 -0.04059,-1.02352 -0.09809,-1.53304 -0.03454,-0.41674 -0.07735,-0.83283 -0.126947,-1.24819 -0.02212,-0.25367 -0.03982,-0.50795 -0.07949,-0.75985 -0.01254,-0.13748 0.01941,-0.15342 -0.135727,-0.23128 -0.02142,-0.0107 0.07095,0.0944 0.02131,0.066 0.01991,0.15869 0.03311,0.31823 0.05066,0.47756 0.02628,0.19626 0.01384,0.39142 0.0088,0.58872 -0.02008,0.302 -0.02025,0.60154 0.01594,0.90291 0.0237,0.60186 0.0049,1.20322 -0.0071,1.80518 -0.01394,0.72492 0.02124,1.44997 0.02559,2.17491 0.02331,1.02913 0.02264,2.05877 -0.0689,3.08554 -0.05082,0.44695 -0.09455,0.89461 -0.145913,1.34151 -0.123274,1.07264 -0.302414,2.13917 -0.387818,3.21585 -0.05356,0.53811 -0.114926,1.0755 -0.168165,1.61364 -0.0897,0.90673 -0.159674,1.81535 -0.253133,2.72178 -0.109564,1.22262 -0.221316,2.44501 -0.34844,3.66612 -0.109676,1.13114 -0.230183,2.26098 -0.36601,3.38959 -0.100257,0.97825 -0.18286,1.95947 -0.372969,2.92687 -0.118477,0.75503 -0.214453,1.51231 -0.313767,2.26969 -0.06375,0.43407 -0.12879,0.8678 -0.20171,1.30046 z" />
    <g
       id="g12"
       style="fill:#281818;fill-opacity:1"
       transform="matrix(0.49981127,0,0,1,13.93432,0)">
      <rect
         style="fill:#281818;fill-opacity:1;stroke-width:3;stroke-linecap:round;stroke-linejoin:bevel;stroke-miterlimit:0.5"
         id="rect1"
         width="130.33257"
         height="12.197362"
         x="27.858126"
         y="168.44966" />
      <path
         style="fill:#281818;fill-opacity:1;stroke-width:12.3077;stroke-linecap:round;stroke-linejoin:bevel;stroke-miterlimit:0.5"
         d="m 122.02101,634.18563 c 1.9853,-6.91079 6.35216,-27.30677 8.80373,-41.11896 3.76915,-21.23536 4.18535,-22.97057 5.62471,-23.45036 0.77278,-0.2576 1.52619,1.58257 1.96665,4.80346 2.38143,17.41417 8.52669,34.90724 18.13563,51.62484 l 6.08308,10.58333 H 141.9771 121.3194 Z"
         id="path2"
         transform="scale(0.26458333)" />
      <path
         style="fill:#281818;fill-opacity:1;stroke-width:12.3077;stroke-linecap:round;stroke-linejoin:bevel;stroke-miterlimit:0.5"
         d="m 171.03074,633.10016 c -1.34121,-8.27435 -2.88523,-28.76306 -3.52864,-46.8243 -0.81636,-22.91591 0.17179,-24.35541 5.63422,-8.20769 1.90823,5.641 4.82099,13.43007 6.47281,17.30903 3.78787,8.89508 16.01357,33.05201 19.09139,37.72296 l 2.32455,3.52778 h -14.71125 -14.71125 z"
         id="path3"
         transform="scale(0.26458333)" />
      <path
         style="fill:#281818;fill-opacity:1;stroke-width:12.3077;stroke-linecap:round;stroke-linejoin:bevel;stroke-miterlimit:0.5"
         d="m 206.46613,629.84375 c -3.25095,-17.87538 -5.72356,-68.67906 -3.30334,-67.87231 0.63898,0.21299 2.49366,4.0315 4.1215,8.48557 4.05188,11.08664 6.11818,14.92658 20.12847,37.40598 6.69754,10.74615 13.2314,21.61442 14.51969,24.1517 l 2.34234,4.61325 h -18.28742 -18.28742 z"
         id="path4"
         transform="scale(0.26458333)" />
      <path
         style="fill:#281818;fill-opacity:1;stroke-width:12.3077;stroke-linecap:round;stroke-linejoin:bevel;stroke-miterlimit:0.5"
         d="m 250.25015,634.73705 c -0.39908,-1.03999 -1.00082,-7.5121 -1.3372,-14.38247 -0.50682,-10.35174 -0.11949,-15.55967 2.26112,-30.40184 1.57999,-9.85063 3.66902,-22.93296 4.64229,-29.07183 0.97326,-6.13887 2.25189,-11.0008 2.8414,-10.8043 0.5895,0.1965 2.20679,5.86489 3.59396,12.59641 6.36111,30.86858 13.85445,50.83719 25.58509,68.18041 1.68798,2.4956 3.06905,4.81579 3.06905,5.15598 0,0.34019 -8.98427,0.61853 -19.96505,0.61853 -17.97807,0 -20.03727,-0.18819 -20.69066,-1.89089 z"
         id="path5"
         transform="scale(0.26458333)" />
      <path
         style="fill:#281818;fill-opacity:1;stroke-width:12.3077;stroke-linecap:round;stroke-linejoin:bevel;stroke-miterlimit:0.5"
         d="m 298.91349,633.76923 c -0.39462,-1.57229 0.33816,-13.17325 1.6284,-25.77991 1.29025,-12.60665 2.70285,-28.74397 3.13912,-35.8607 0.43627,-7.11674 1.28168,-13.09086 1.87869,-13.27583 0.59701,-0.18497 2.60105,5.88204 4.45342,13.48225 2.24932,9.22887 6.49161,21.35115 12.77262,36.49755 5.17256,12.47344 9.69359,23.83017 10.04672,25.23717 l 0.64206,2.55818 h -16.92177 -16.92177 z"
         id="path6"
         transform="scale(0.26458333)" />
      <path
         style="fill:#281818;fill-opacity:1;stroke-width:12.3077;stroke-linecap:round;stroke-linejoin:bevel;stroke-miterlimit:0.5"
         d="m 339.7735,632.01469 c 0.0336,-7.20072 1.87244,-18.35323 6.0405,-36.6346 2.10978,-9.25363 4.79933,-21.6841 5.97678,-27.62326 1.17745,-5.93917 2.37778,-11.03545 2.66739,-11.32507 1.53305,-1.53305 2.93429,3.39076 5.96489,20.96002 2.14381,12.42828 5.21918,25.2814 8.5628,35.7871 2.86964,9.01643 5.56438,17.98101 5.98832,19.92128 l 0.77081,3.52778 h -17.9965 -17.9965 z"
         id="path7"
         transform="scale(0.26458333)" />
      <path
         style="fill:#281818;fill-opacity:1;stroke-width:12.3077;stroke-linecap:round;stroke-linejoin:bevel;stroke-miterlimit:0.5"
         d="m 384.74956,634.18563 c 0.29407,-1.34327 1.30045,-7.08269 2.2364,-12.75427 0.93594,-5.67157 3.62574,-18.65728 5.97733,-28.85712 3.82373,-16.5852 6.99753,-34.16038 7.82409,-43.32661 0.18365,-2.03659 0.90208,-3.25641 1.91791,-3.25641 1.21891,0 2.47169,4.06326 5.02005,16.28205 5.10194,24.46262 7.44572,31.85231 16.80931,52.99787 4.71225,10.64157 8.56773,19.80022 8.56773,20.35256 0,0.58561 -10.18963,1.00424 -24.44374,1.00424 h -24.44375 z"
         id="path8"
         transform="scale(0.26458333)" />
      <path
         style="fill:#281818;fill-opacity:1;stroke-width:12.3077;stroke-linecap:round;stroke-linejoin:bevel;stroke-miterlimit:0.5"
         d="m 437.45322,619.36843 c -1.59147,-19.19166 -1.15161,-28.0603 2.18571,-44.06953 1.24453,-5.97008 2.86904,-14.97313 3.61001,-20.00678 0.7482,-5.08283 1.92908,-9.34605 2.65588,-9.58832 0.77746,-0.25915 1.30867,0.615 1.30867,2.15354 0,3.05197 6.35458,29.12294 10.12811,41.55267 1.44996,4.77607 5.62584,17.03816 9.27973,27.24909 3.65389,10.21093 6.64343,18.88112 6.64343,19.26708 0,0.38597 -7.73557,0.70176 -17.19015,0.70176 h -17.19015 z"
         id="path9"
         transform="scale(0.26458333)" />
      <path
         style="fill:#281818;fill-opacity:1;stroke-width:12.3077;stroke-linecap:round;stroke-linejoin:bevel;stroke-miterlimit:0.5"
         d="m 485.20493,635.67503 c 0,-0.5241 0.76631,-2.78697 1.70293,-5.0286 2.11328,-5.05779 7.57154,-35.65723 9.14989,-51.29499 0.64676,-6.40795 1.43886,-14.24307 1.76021,-17.41138 0.34663,-3.41765 1.06006,-5.60196 1.75412,-5.37061 0.64341,0.21447 2.49153,5.49326 4.10692,11.73064 4.2402,16.37238 12.52196,44.66565 15.00553,51.26396 1.17306,3.11655 3.14944,8.23088 4.39196,11.36517 l 2.25913,5.69872 h -20.06535 c -11.03594,0 -20.06534,-0.42881 -20.06534,-0.95291 z"
         id="path10"
         transform="scale(0.26458333)" />
      <path
         style="fill:#281818;fill-opacity:1;stroke-width:12.3077;stroke-linecap:round;stroke-linejoin:bevel;stroke-miterlimit:0.5"
         d="m 528.25583,621.70273 c -2.46702,-20.32834 -3.79028,-71.30839 -1.83399,-70.65629 0.77476,0.25825 3.47832,6.06494 6.00791,12.90374 2.52959,6.83881 10.20996,24.88996 17.06749,40.11367 6.85754,15.22371 12.81465,28.77851 13.23802,30.12178 l 0.76977,2.44231 h -16.71895 -16.71896 z"
         id="path11"
         transform="scale(0.26458333)" />
      <path
         style="fill:#281818;fill-opacity:1;stroke-width:12.3077;stroke-linecap:round;stroke-linejoin:bevel;stroke-miterlimit:0.5"
         d="m 568.45194,635.81384 c -0.76721,-1.35114 -3.83851,-11.2519 -5.64009,-18.18162 -0.93126,-3.58205 -2.40426,-15.54935 -3.27333,-26.59401 -0.86907,-11.04465 -2.34783,-22.94231 -3.28613,-26.43925 -1.66526,-6.20621 -1.46611,-8.63561 0.54064,-6.5952 0.54801,0.5572 3.77654,8.58425 7.17449,17.83788 6.95211,18.93264 9.12918,23.52638 21.23499,44.807 4.70216,8.26585 8.54938,15.24268 8.54938,15.50406 0,0.83885 -24.81998,0.50642 -25.29995,-0.33886 z"
         id="path12"
         transform="scale(0.26458333)" />
    </g>
    <path
       style="fill:#fc2828;fill-opacity:1;stroke-width:0.60396;stroke-linecap:round;stroke-linejoin:bevel;stroke-miterlimit:0.5"
       d="m 32.107537,150.83764 c -0.07221,-0.22048 -0.122359,-0.23508 -0.21726,-0.0632 -0.112749,0.20415 -0.122934,0.0602 -0.03741,-0.52868 0.04439,-0.30564 0.100048,-0.81592 0.12369,-1.13396 0.04749,-0.63888 0.121591,-0.74174 0.136532,-0.18952 0.01183,0.43757 0.08524,1.71838 0.110842,1.93424 0.02684,0.22631 -0.03964,0.21555 -0.116394,-0.0188 z"
       id="path13" />
    <path
       style="fill:#fc2828;fill-opacity:1;stroke-width:0.60396;stroke-linecap:round;stroke-linejoin:bevel;stroke-miterlimit:0.5"
       d="m 36.38172,150.51239 c -0.04033,-0.15817 -0.101583,-0.33449 -0.136118,-0.39184 -0.05484,-0.091 -0.07155,-0.081 -0.131979,0.0793 -0.03805,0.10094 -0.07648,0.16707 -0.0854,0.14697 -0.0089,-0.0201 -0.02635,-0.67463 -0.03875,-1.45452 -0.01715,-1.07856 -0.01182,-1.41083 0.02222,-1.38813 0.02462,0.0164 0.06451,0.1629 0.08865,0.3255 0.478761,3.2253 0.445148,2.97034 0.391595,2.97034 -0.02029,0 -0.06989,-0.12941 -0.11022,-0.28758 z"
       id="path14" />
    <path
       style="fill:#fc2828;fill-opacity:1;stroke-width:0.60396;stroke-linecap:round;stroke-linejoin:bevel;stroke-miterlimit:0.5"
       d="m 40.577182,149.34961 c -0.01824,-0.10541 -0.131968,-3.13628 -0.131968,-3.51704 0,-0.32972 0.07682,-0.26587 0.135282,0.11245 0.02522,0.16317 0.149133,0.94609 0.275371,1.73982 0.12624,0.79374 0.229526,1.46335 0.229526,1.48804 0,0.13031 -0.07709,0.009 -0.16677,-0.26188 -0.08302,-0.251 -0.111308,-0.29041 -0.155634,-0.2168 -0.02979,0.0495 -0.0544,0.16208 -0.05469,0.25024 -0.0012,0.38575 -0.08806,0.65401 -0.131121,0.40517 z"
       id="path15" />
    <path
       style="fill:#fc2828;fill-opacity:1;stroke-width:0.60396;stroke-linecap:round;stroke-linejoin:bevel;stroke-miterlimit:0.5"
       d="m 47.863745,146.3305 c 0,-0.0202 0.02454,-0.48923 0.05452,-1.04225 0.02999,-0.55302 0.06619,-1.36996 0.08045,-1.81543 0.02343,-0.7319 0.05071,-0.92589 0.105323,-0.74908 0.0186,0.0602 0.286905,3.2373 0.286905,3.39732 0,0.19464 -0.07746,0.0573 -0.148233,-0.26279 -0.04318,-0.19531 -0.09651,-0.33236 -0.122576,-0.31498 -0.02537,0.0169 -0.07481,0.19681 -0.109857,0.39976 -0.03505,0.20294 -0.08236,0.38141 -0.105131,0.3966 -0.02277,0.0152 -0.04141,0.0111 -0.04141,-0.009 z"
       id="path16" />
    <path
       style="fill:#fc2828;fill-opacity:1;stroke-width:0.60396;stroke-linecap:round;stroke-linejoin:bevel;stroke-miterlimit:0.5"
       d="m 54.126156,148.41773 c 0.01219,-0.20229 0.04363,-0.9357 0.06985,-1.6298 0.04223,-1.11769 0.07941,-1.47019 0.123166,-1.16782 0.01888,0.13044 0.247608,2.50022 0.247608,2.56537 0,0.12738 -0.08075,0.036 -0.119824,-0.13555 -0.02359,-0.10359 -0.06428,-0.18835 -0.09042,-0.18835 -0.04762,0 -0.114407,0.33012 -0.135992,0.67219 -0.0063,0.10035 -0.03515,0.19805 -0.06404,0.21711 -0.04204,0.0277 -0.0481,-0.0388 -0.03035,-0.33315 z"
       id="path17" />
    <path
       style="fill:#fc2828;fill-opacity:1;stroke-width:0.60396;stroke-linecap:round;stroke-linejoin:bevel;stroke-miterlimit:0.5"
       d="m 61.047561,147.52164 c -0.09065,-0.41001 -0.182782,-0.50792 -0.259743,-0.27601 -0.02991,0.0901 -0.0667,0.16388 -0.08176,0.16388 -0.01505,0 -0.0257,-0.50009 -0.02365,-1.11131 0.002,-0.61123 -0.0096,-1.34343 -0.02594,-1.62711 -0.05639,-0.98066 0.05657,-0.50073 0.299881,1.27406 0.130299,0.95044 0.237189,1.77045 0.237532,1.82225 0.0014,0.20483 -0.07509,0.0764 -0.146321,-0.24576 z"
       id="path18" />
    <path
       style="fill:#fc2828;fill-opacity:1;stroke-width:0.60396;stroke-linecap:round;stroke-linejoin:bevel;stroke-miterlimit:0.5"
       d="m 67.367785,144.81611 c -0.09691,-0.41247 -0.168497,-0.47416 -0.309023,-0.2663 -0.05972,0.0883 -0.114713,0.14833 -0.122215,0.13332 -0.02045,-0.0409 0.08867,-2.63569 0.112878,-2.68413 0.0422,-0.0844 0.0888,0.11405 0.182406,0.77689 0.122778,0.86939 0.28914,2.18859 0.28914,2.2928 0,0.18889 -0.08075,0.0558 -0.153186,-0.25258 z"
       id="path19" />
    <path
       style="fill:#fc2828;fill-opacity:1;stroke-width:3.22881;stroke-linecap:round;stroke-linejoin:bevel;stroke-miterlimit:0.5"
       d=""
       id="path20"
       transform="scale(0.26458333)" />
    <path
       style="fill:#fc2828;fill-opacity:1;stroke-width:0.60396;stroke-linecap:round;stroke-linejoin:bevel;stroke-miterlimit:0.5"
       d="m 72.656405,144.76417 c 0.01288,-0.12889 0.04157,-0.62898 0.06375,-1.11131 0.06475,-1.408 0.07459,-1.5288 0.121951,-1.49721 0.02409,0.0161 0.08115,0.46733 0.126809,1.00281 0.108852,1.27665 0.108984,1.25087 -0.0061,1.1931 -0.08347,-0.0419 -0.101941,-0.009 -0.16812,0.29994 -0.08612,0.40198 -0.17444,0.47392 -0.138329,0.11267 z"
       id="path21" />
    <path
       style="fill:#fc2828;fill-opacity:1;stroke-width:0.60396;stroke-linecap:round;stroke-linejoin:bevel;stroke-miterlimit:0.5"
       d="m 80.133809,147.64094 c -0.117014,-0.54422 -0.204394,-0.55878 -0.286712,-0.0478 -0.01961,0.12173 -0.05599,0.23489 -0.08085,0.25146 -0.03408,0.0227 -0.03917,-0.13351 -0.02068,-0.6357 0.08192,-2.22543 0.112016,-2.81646 0.143452,-2.81756 0.01937,-7.9e-4 0.108942,0.72051 0.199052,1.60264 0.09011,0.88213 0.17382,1.69711 0.186022,1.81107 0.03692,0.34481 -0.05364,0.23885 -0.140289,-0.16413 z"
       id="path22" />
    <path
       style="fill:#fc2828;fill-opacity:1;stroke-width:0.60396;stroke-linecap:round;stroke-linejoin:bevel;stroke-miterlimit:0.5"
       d="m 83.336655,146.83188 c -2.65e-4,-0.076 -0.03394,-1.0366 -0.07484,-2.13473 -0.08805,-2.36417 -0.08556,-2.20435 -0.03385,-2.16987 0.0228,0.0152 0.11431,0.53508 0.203347,1.15527 0.08904,0.62019 0.231366,1.50481 0.316285,1.96583 0.08492,0.46102 0.154399,0.8594 0.154399,0.88529 0,0.15138 -0.08231,-0.006 -0.191647,-0.36732 -0.178695,-0.58991 -0.222981,-0.54621 -0.257857,0.25442 -0.01263,0.28979 -0.04028,0.49961 -0.06829,0.51812 -0.02611,0.0173 -0.04728,-0.0304 -0.04755,-0.10701 z"
       id="path23" />
    <path
       style="fill:#fc2828;fill-opacity:1;stroke-width:0.60396;stroke-linecap:round;stroke-linejoin:bevel;stroke-miterlimit:0.5"
       d="m 87.612638,147.71623 c -0.08534,-0.33018 -0.283812,-0.40545 -0.283812,-0.10763 0,0.0632 -0.01957,0.1018 -0.04349,0.0858 -0.02392,-0.0159 -0.08159,-0.3663 -0.128166,-0.77855 -0.04657,-0.41225 -0.161725,-1.26417 -0.25589,-1.89315 -0.171616,-1.1463 -0.363266,-2.91162 -0.363266,-3.3461 0,-0.52816 0.10521,-0.0775 0.416045,1.78203 0.179663,1.07483 0.430683,2.49672 0.557822,3.15974 0.127138,0.66302 0.231163,1.23092 0.231167,1.262 1.8e-5,0.13621 -0.07824,0.0377 -0.130414,-0.16418 z"
       id="path24" />
    <path
       id="rect36"
       style="fill:#281818;stroke-width:2.49441;stroke-linecap:round;stroke-linejoin:bevel;stroke-miterlimit:0.5"
       d="m 27.858126,137.25808 v 0 l 7.22638,43.38894 h -7.22638 z"
       sodipodi:nodetypes="ccccc" />
    <path
       id="path36"
       style="fill:#281818;stroke-width:2.49441;stroke-linecap:round;stroke-linejoin:bevel;stroke-miterlimit:0.5"
       d="m 92.99981,137.25808 v 0 l -7.22638,43.38894 h 7.22638 z"
       sodipodi:nodetypes="ccccc" />
  </g>
</svg>
