<?xml version="1.0" encoding="UTF-8" standalone="no"?>
<!-- Created with Inkscape (http://www.inkscape.org/) -->

<svg
   width="130.3492mm"
   height="44.344086mm"
   viewBox="0 0 130.3492 44.344086"
   version="1.1"
   id="svg1"
   inkscape:version="1.4.2 (ebf0e940d0, 2025-05-08)"
   sodipodi:docname="spikes.svg"
   inkscape:export-filename="spikes.png"
   inkscape:export-xdpi="38.972237"
   inkscape:export-ydpi="38.972237"
   xmlns:inkscape="http://www.inkscape.org/namespaces/inkscape"
   xmlns:sodipodi="http://sodipodi.sourceforge.net/DTD/sodipodi-0.dtd"
   xmlns="http://www.w3.org/2000/svg"
   xmlns:svg="http://www.w3.org/2000/svg">
  <sodipodi:namedview
     id="namedview1"
     pagecolor="#ffffff"
     bordercolor="#000000"
     borderopacity="0.25"
     inkscape:showpageshadow="2"
     inkscape:pageopacity="0.0"
     inkscape:pagecheckerboard="0"
     inkscape:deskcolor="#d1d1d1"
     inkscape:document-units="mm"
     inkscape:zoom="1.2443998"
     inkscape:cx="195.67666"
     inkscape:cy="37.367412"
     inkscape:window-width="1920"
     inkscape:window-height="1128"
     inkscape:window-x="0"
     inkscape:window-y="0"
     inkscape:window-maximized="1"
     inkscape:current-layer="layer1" />
  <defs
     id="defs1" />
  <g
     inkscape:label="Layer 1"
     inkscape:groupmode="layer"
     id="layer1"
     transform="translate(-27.858126,-136.30294)">
    <path
       style="fill:#4c0000;stroke-width:2.06691;stroke-linecap:round;stroke-linejoin:bevel;stroke-miterlimit:0.5"
       id="path1"
       d="m 31.151978,171.25531 c 0.143243,-0.43623 0.265112,-0.87467 0.378793,-1.313 0.198297,-0.75824 0.379854,-1.51741 0.609177,-2.27373 0.05146,-0.1581 0.101415,-0.31632 0.154387,-0.47431 0.159723,-0.47639 0.162385,-0.43281 0.292158,-0.91482 0.13734,-0.51012 0.225449,-1.02266 0.320069,-1.53483 0.268145,-1.12749 0.518353,-2.25567 0.750536,-3.38497 0.251666,-1.22382 0.441319,-2.45022 0.661252,-3.67539 0.286866,-1.45129 0.493186,-2.90571 0.750488,-4.35811 0.165875,-0.81576 0.351337,-1.63096 0.56276,-2.44439 0.05776,-0.22222 0.340273,-1.19356 0.38975,-1.44815 0.04343,-0.22349 0.05783,-0.44804 0.08674,-0.67206 0.177761,-1.02461 0.204169,-2.05181 0.178321,-3.07907 -0.05462,-0.72723 -0.0323,-1.45527 -0.0837,-2.18245 -0.01064,-0.60927 -0.0048,-1.21774 -0.06988,-1.82647 -0.03749,-0.3013 -0.06365,-0.60092 -0.04095,-0.90252 0.0054,-0.20979 -0.07876,-0.41643 -0.143391,-0.62318 -0.06166,-0.12022 -0.0381,-0.24856 -0.101695,-0.36831 -0.02403,-0.0452 -0.06412,-0.0882 -0.09453,-0.13264 -0.04113,-0.0752 -0.01879,-0.10381 -0.281054,-0.10033 -0.0266,3.8e-4 0.0073,0.025 0.01122,0.0375 0.02655,0.0857 0.0086,0.0211 0.03399,0.12023 0.09417,0.25447 0.144375,0.51206 0.198477,0.769 0.104262,0.41544 0.192371,0.83183 0.25831,1.24905 0.103122,0.50857 0.15221,1.01885 0.183272,1.52938 0.03356,0.566 5.29e-4,1.13224 0.02524,1.69824 0.04144,0.70961 0.08226,1.4191 0.134641,2.12856 0.04159,0.88745 0.07609,1.77454 0.154644,2.66146 0.134064,1.0506 0.309782,2.09986 0.44386,3.15045 0.112276,1.10247 0.392326,2.19823 0.680942,3.29271 0.32204,1.36835 0.833533,2.7233 1.343117,4.07795 0.402315,1.11359 0.91544,2.21733 1.524448,3.30935 0.572928,0.97064 1.098523,1.94731 1.632558,2.92287 0.397436,0.74369 0.913387,1.47091 1.351994,2.20898 0.28057,0.47185 0.537769,0.94654 0.795624,1.42123 0.159636,0.32755 0.372872,0.64815 0.555027,0.97281 0.05419,0.13757 0.15984,0.2677 0.217784,0.40479 0.07442,0.16829 -0.02347,0.26065 0.719907,0.21418 0.09684,-0.006 -0.02336,-0.0921 -0.03504,-0.1381 -0.243906,-0.86283 -0.33782,-1.73353 -0.447921,-2.60195 -0.216405,-1.72517 -0.398581,-3.45115 -0.564959,-5.17755 -0.192389,-2.04068 -0.311817,-4.08286 -0.443778,-6.12463 -0.04648,-1.04177 -0.120576,-2.08372 -0.143441,-3.12572 -0.01939,-0.88334 0.01582,-1.76724 0.04177,-2.65047 0.06648,-1.43566 -0.05403,-2.87048 -0.09207,-4.30573 -0.08716,-1.26108 -0.15077,-2.52244 -0.160094,-3.78421 0.01058,-0.7217 -0.08273,-1.44245 -0.193162,-2.16188 -0.07064,-0.46865 -0.142676,-0.93583 -0.136401,-1.40587 -0.066,-0.22135 0.0085,-0.44143 0.03253,-0.66195 7.94e-4,-0.12602 -0.003,-0.0679 0.0087,-0.17441 -0.06742,-0.14084 -0.04743,-0.14173 -0.559086,-0.17977 -0.01074,-9.5e-4 -0.02484,0.228 -0.0269,0.24651 -0.05137,0.38106 -0.07674,0.7627 -0.08268,1.14448 -0.03074,0.54714 0.07108,1.0923 0.171244,1.63663 0.09888,0.63428 0.247205,1.26645 0.371099,1.89967 0.025,0.12286 0.05219,0.24563 0.07504,0.36859 0.0745,0.401 0.140425,0.80215 0.242711,1.20193 0.07234,0.28273 0.159318,0.56458 0.236926,0.847 0.207386,0.76379 0.427654,1.52685 0.67731,2.2878 0.226094,0.7798 0.439475,1.56025 0.675052,2.33943 0.253143,0.97122 0.585446,1.93713 0.942708,2.90079 0.451734,1.10619 0.904872,2.21195 1.32711,3.32078 0.517911,1.29018 1.122656,2.57194 1.738347,3.85225 0.643827,1.2499 1.334876,2.49413 1.958472,3.74637 0.476941,1.03844 1.160153,2.05034 1.791208,3.06875 0.444659,0.68075 0.834242,1.36901 1.223854,2.05716 0.180801,0.27927 0.275783,0.56732 0.375743,0.85449 0.02141,0.11663 0.01021,0.24028 0.617305,0.12539 0.118594,-0.0225 -0.03527,-0.12006 -0.04962,-0.18028 -0.02048,-0.086 -0.03587,-0.17219 -0.0548,-0.25823 -0.225155,-1.02335 0.06988,0.34803 -0.199377,-0.91202 -0.319566,-1.67302 -0.639117,-3.34627 -0.915707,-5.02104 -0.204518,-1.40139 -0.398423,-2.80362 -0.484068,-4.20799 -0.05318,-0.87207 -0.05021,-1.27769 -0.06407,-2.14286 7.94e-4,-0.32597 -2.64e-4,-0.65195 0.0021,-0.97792 0.0067,-0.89995 0.02135,-0.87847 0.01019,-1.76582 -0.0096,-0.76453 -0.05509,-1.52833 -0.10104,-2.2925 -0.08402,-0.84942 -0.07143,-1.70005 -0.113757,-2.54988 -0.01003,-0.20145 -0.07847,-0.99919 -0.09546,-1.20226 -0.122007,-1.02916 -0.180737,-2.05936 -0.24752,-3.08951 -0.04112,-0.72368 -0.114956,-1.44678 -0.173075,-2.17017 -0.05456,-0.51454 0.0028,-1.02994 -0.07923,-1.54373 -0.06558,-0.36062 -0.150291,-0.72032 -0.226005,-1.08048 -0.0492,-0.28149 -0.07906,-0.56419 -0.09122,-0.84657 -0.06019,-0.32628 -0.103564,-0.65483 -0.20355,-0.97898 -0.03952,-0.19024 -0.07788,-0.38056 -0.118972,-0.57072 -0.02228,-0.10309 -0.0697,-0.20408 -0.05116,-0.30747 -0.234868,-0.0492 -0.45229,-0.1251 -0.704604,-0.14758 -0.06342,-0.006 0.03605,0.0589 0.04762,0.0891 0.02244,0.0584 0.03978,0.1172 0.05428,0.17614 0.07676,0.31201 0.139062,0.62532 0.211351,0.93762 0.255773,1.07416 0.634508,2.14049 0.917324,3.21281 0.320403,1.30788 0.717571,2.61084 1.108469,3.91422 0.504899,1.56917 1.031505,3.13699 1.608672,4.70057 0.547249,1.51661 1.364107,3.00672 2.26205,4.48391 0.706726,1.23336 1.514179,2.45243 2.292498,3.67574 0.106633,0.17196 0.210381,0.34434 0.319897,0.5159 0.802008,1.25634 -0.05841,-0.12684 0.737696,1.14243 0.363125,0.57895 0.705821,1.16028 1.074785,1.73843 0.731568,1.16561 1.420217,2.337 2.091796,3.51066 0.459229,0.82978 0.775197,1.67454 1.084416,2.51908 0.170846,0.50171 0.349057,1.00227 0.547478,1.50159 0.05526,0.1455 0.133464,0.28936 0.167963,0.43657 0.01646,0.0702 0.02286,0.13712 0.05221,0.20656 0.0019,0.0814 -0.0039,-0.004 0.01199,-10e-4 0.226645,0.0394 0.417171,0.12617 0.654481,0.1472 0.06805,0.006 -0.0456,-0.0623 -0.05935,-0.0945 -0.06212,-0.14542 -0.09934,-0.35748 -0.129905,-0.49381 -0.177107,-1.166 -0.288451,-2.33428 -0.422429,-3.50163 -0.114598,-1.01551 -0.289745,-2.02994 -0.363802,-3.04648 -0.01725,-0.23672 -0.02016,-0.47363 -0.03024,-0.71044 0.0093,-1.31096 -0.0037,-2.62178 0.08736,-3.93217 0.134903,-1.68119 0.551256,-3.35281 0.81671,-5.02963 0.245782,-1.53737 0.433663,-3.07646 0.647568,-4.61483 0.18982,-1.27649 0.406275,-2.55206 0.629036,-3.82736 0.145373,-1.05851 0.238567,-2.11846 0.312068,-3.17857 0.05302,-0.79092 0.144508,-1.58102 0.160885,-2.37238 0.02511,-0.54543 0.05712,-1.09031 -0.01098,-1.6352 -0.05243,-0.28296 -0.05327,-0.56685 -0.057,-0.8506 -0.0057,-0.23865 -0.01834,-0.28576 -0.836298,-0.30525 -0.07672,-0.002 -1.22e-4,0.0729 0.0024,0.10939 0.0036,0.0504 0.01074,0.10068 0.01609,0.15102 0.0052,0.0594 0.0061,0.11896 0.01556,0.17826 0.05148,0.32307 0.150699,0.64476 0.231701,0.96626 0.08632,0.34263 0.144524,0.60023 0.224775,0.94514 0.192158,0.79305 0.420504,1.5844 0.583115,2.37903 0.09258,0.45242 0.182401,1.04441 0.254664,1.49442 0.245557,1.64787 0.561501,3.29361 0.901314,4.9377 0.431744,1.84783 0.850032,3.69664 1.345022,5.54096 0.319365,1.32442 0.795502,2.63772 1.28665,3.94965 0.398733,1.00725 0.770337,2.01659 1.200243,3.02096 0.528801,1.09806 1.124746,2.18829 1.762088,3.27317 0.411178,0.66558 0.800579,1.33477 1.255733,1.99406 0.20491,0.2968 0.423379,0.59147 0.630984,0.88786 0.564872,0.84307 1.042511,1.69784 1.440942,2.56184 0.14782,0.28259 0.25268,0.56956 0.350443,0.85681 0.01587,0.0467 0.03586,0.0931 0.04517,0.14018 0.0024,0.0117 -0.03358,0.0306 -0.0105,0.035 0.179022,0.0342 0.373258,0.0466 0.559884,0.0699 -0.280199,-0.94045 -0.339246,-1.89025 -0.427434,-2.83773 -0.104582,-1.04124 -0.173246,-2.08352 -0.141565,-3.12607 0.02347,-0.77202 0.06786,-1.1324 0.13793,-1.91255 0.127352,-1.32051 0.357047,-2.6383 0.513069,-3.95795 0.0755,-0.63856 0.124971,-1.27776 0.18995,-1.91657 0.208907,-1.73884 0.211711,-3.48059 0.303458,-5.22116 0.113581,-1.54102 0.189008,-3.08219 0.349787,-4.62238 0.15367,-1.33991 0.210778,-2.68201 0.26121,-4.02358 0.04106,-0.90655 0.02577,-1.81358 -0.04659,-2.71964 -0.05289,-0.50642 -0.12074,-1.01219 -0.222837,-1.51691 -0.07618,-0.28192 -0.09265,-0.56579 -0.107754,-0.84949 -0.01638,-0.15759 0.0016,-0.31566 -0.04573,-0.47218 0.04853,-0.0995 0.121222,-0.0682 -0.714314,-0.18492 -0.05314,-0.007 0.0391,0.0493 0.05235,0.0749 0.06732,0.12975 0.08642,0.22565 0.126866,0.36225 0.223998,0.81103 0.388392,1.625 0.539429,2.43968 0.230246,1.13105 0.280588,2.26782 0.433745,3.40128 0.03778,0.27962 0.08807,0.55883 0.132104,0.83825 0.277849,1.71116 0.681053,3.4172 1.104334,5.12149 0.308766,1.22532 0.595553,2.45182 0.932741,3.67547 0.388784,1.27541 0.888383,2.54199 1.428599,3.80461 0.697248,1.69025 1.44195,3.37589 2.159928,5.06414 0.603216,1.45858 1.172544,2.92024 1.734545,4.3825 0.278043,0.71079 0.483349,1.42722 0.755682,2.13843 0.03762,0.0873 0.07551,0.17449 0.112863,0.26177 0.217612,0.50848 -0.01209,-0.0287 0.15929,0.38355 0.01241,0.0299 -0.01251,0.0714 0.03919,0.0894 0.745463,0.25978 0.669964,0.2524 0.685244,0.0412 -0.09376,-0.95722 -0.139999,-1.91518 -0.143052,-2.87339 0.02207,-1.18201 0.08026,-2.36458 0.235365,-3.54454 0.111419,-0.8476 0.170635,-1.07975 0.335606,-1.91708 0.424905,-2.26993 0.963221,-4.53465 1.479507,-6.80019 0.08933,-0.37563 0.176655,-0.75138 0.267984,-1.12691 0.285257,-1.17294 0.245139,-0.92082 0.492482,-2.0871 0.203631,-0.96018 0.382108,-1.92167 0.569579,-2.88258 0.148124,-1.03175 0.365808,-2.06428 0.374137,-3.09948 0.0026,-0.31678 -0.04645,-0.9065 -0.0701,-1.23083 -0.122225,-0.9037 -0.251759,-1.80729 -0.386411,-2.71061 -0.10927,-0.58292 -0.146278,-1.16777 -0.171358,-1.75259 -0.02183,-0.41511 -0.0094,-0.8295 0.05092,-1.24366 0.02617,-0.20285 0.07172,-0.40639 0.04374,-0.60974 -0.07195,-0.1916 0.07001,-0.2304 -0.851204,-0.22839 -0.09789,2.5e-4 0.04643,0.0903 0.06735,0.13568 0.04159,0.0902 0.08012,0.18079 0.120187,0.27118 0.349287,0.91137 0.594194,1.83012 0.761426,2.75272 0.176644,1.28637 0.459881,2.56869 0.841571,3.8448 0.338423,1.24432 0.697746,2.48807 0.956733,3.7369 0.152982,0.73767 0.236842,1.31714 0.354606,2.05485 0.214905,1.34093 0.428468,2.6819 0.637873,4.02303 0.04815,0.30838 0.08809,0.61707 0.143931,0.92516 0.05693,0.31403 0.129571,0.62737 0.19436,0.94105 0.359913,1.72097 0.939236,3.42902 1.552294,5.13303 0.538181,1.5194 0.97069,3.04656 1.383216,4.57461 0.182758,0.71069 0.32508,1.42301 0.574175,2.12933 0.177368,0.41502 0.36011,0.82953 0.51069,1.24693 0.0862,0.29651 0.11911,0.59491 0.23983,0.88903 0.057,0.15542 0.0291,0.16213 0.77641,0.15529 0.0813,-9.5e-4 0.0134,-0.0769 0.0208,-0.11539 0.0105,-0.0548 0.0219,-0.10957 0.0328,-0.16436 0.0231,-0.0721 0.0548,-0.1436 0.0692,-0.21616 0.0176,-0.0886 0.0178,-0.17779 0.0267,-0.26668 -0.0239,-0.71529 0.0951,-1.4277 0.20457,-2.14039 0.22296,-1.16279 0.33558,-2.32923 0.51494,-3.49354 0.27974,-1.45679 0.51278,-2.9155 0.82712,-4.37074 0.30945,-1.36487 0.62274,-2.72958 0.98022,-4.09183 0.32933,-1.28594 0.61405,-2.57466 0.89369,-3.86329 0.24764,-1.30851 0.46335,-2.6182 0.68288,-3.9278 0.22251,-1.39927 0.3836,-2.79973 0.48957,-4.202 0.0774,-1.00398 0.19135,-2.00734 0.18435,-3.01222 -10e-4,-0.5512 -0.0145,-1.10238 -0.0166,-1.65356 -0.0251,-0.2016 0.0282,-0.40657 -0.008,-0.60792 -0.0267,-0.14992 -0.0471,-0.03 -0.0237,-0.12582 -0.14698,0.20033 0.11413,-0.11708 -0.94012,-0.17372 -0.12673,-0.007 0.10321,0.11093 0.14318,0.16842 0.0605,0.0869 0.1147,0.17503 0.15767,0.26429 0.0758,0.15752 0.21759,0.58513 0.26793,0.73086 0.39377,1.17195 0.74061,2.34768 1.06391,3.5245 0.51271,1.81776 0.83191,3.64579 1.18706,5.47153 0.37847,2.11941 0.91206,4.23089 1.4978,6.33927 0.42233,1.65387 1.02526,3.29543 1.75447,4.92458 0.5262,1.30108 1.15581,2.59162 1.74922,3.88593 0.52984,1.08936 1.02272,2.18195 1.46145,3.28038 0.2157,0.57094 0.43036,1.14223 0.59217,1.71726 0.0647,0.19996 0.0991,0.40165 0.15213,0.60229 0.007,0.0272 0.0174,0.0541 0.0245,0.0812 0.002,0.007 -0.0118,0.0192 0.003,0.0217 0.23435,0.0413 0.47771,0.0699 0.71657,0.10488 -0.0236,-0.5145 -0.0744,-1.02887 -0.10118,-1.54349 -0.005,-1.09045 -0.0678,-2.18041 -0.15211,-3.27003 -0.0751,-1.3008 -0.26873,-2.59861 -0.41909,-3.89763 -0.11567,-1.05922 -0.12975,-2.12195 -0.038,-3.18179 0.0463,-0.53552 0.14484,-1.18342 0.2201,-1.71797 0.15792,-1.61251 0.46248,-3.21954 0.81415,-4.82468 0.2823,-1.33976 0.56476,-2.67958 0.79127,-4.02177 0.17189,-1.33572 0.40072,-2.66961 0.53403,-4.00638 0.0621,-1.07773 0.14688,-2.15483 0.28855,-3.2309 0.0834,-0.60314 0.12121,-1.20723 0.1582,-1.81131 0.0289,-0.21853 0.0172,-0.4384 -0.0595,-0.65449 0.0901,-0.18738 0.0678,-0.12113 -1.04172,-0.23387 -0.0829,-0.008 0.0315,0.0791 0.0461,0.1188 0.0299,0.0817 0.0617,0.16327 0.0872,0.2453 0.0801,0.25826 0.14253,0.51768 0.21315,0.77656 0.2557,0.92794 0.35934,1.86292 0.51703,2.79517 0.55353,3.27253 -0.24793,-1.61236 0.28614,1.66317 0.26606,1.6275 0.51754,3.25575 0.86964,4.87966 0.44888,1.87254 0.94582,3.74231 1.45209,5.61154 0.47725,1.6285 0.90616,3.26035 1.47266,4.88259 0.42408,1.2412 0.88601,2.47935 1.33533,3.71853 0.38262,1.00158 0.77047,2.00266 1.09297,3.00906 0.19257,0.6783 0.39605,1.35418 0.69493,2.02388 0.29587,0.70417 0.53722,1.41324 0.84229,2.11651 0.11499,0.27201 0.21448,0.54585 0.34228,0.81664 0.16339,0.2023 -0.14733,0.10112 0.88321,0.27536 0.0282,0.005 0.0636,-0.0547 0.11398,-0.12687 0.28429,-0.60241 0.55348,-1.20646 0.82573,-1.81013 0.36337,-0.85848 0.75455,-1.71619 1.02048,-2.58316 0.0597,-0.19449 0.10564,-0.38987 0.15847,-0.5848 0.34428,-1.78562 0.59205,-3.57478 0.93673,-5.3604 0.0636,-0.37851 0.12435,-0.75713 0.19096,-1.13552 0.23948,-1.36045 0.18152,-0.89054 0.39508,-2.25858 0.16884,-1.08158 0.30086,-2.1633 0.41051,-3.24653 0.22086,-2.00863 0.32973,-4.01969 0.47646,-6.02977 0.10386,-1.64767 0.2737,-3.29431 0.37825,-4.9419 0.0242,-0.7913 0.0846,-1.58328 0.0684,-2.37475 -0.0316,-0.33754 -0.0489,-0.67539 -0.0558,-1.01324 -0.004,-0.14793 -0.009,-0.29571 -0.0194,-0.4434 -7.9e-4,-0.0113 0.0256,-0.0284 0.005,-0.0337 -0.2104,-0.0534 -0.43944,-0.0882 -0.65915,-0.13227 0.0105,0.0203 0.0252,0.0402 0.0316,0.0608 0.0518,0.16742 0.0482,0.34438 0.0592,0.51265 0.014,0.21608 0.0256,0.4322 0.0391,0.64828 0.0503,0.80118 0.0816,1.60259 0.15555,2.40339 0.22389,1.2705 0.4342,2.54128 0.68876,3.81052 0.26868,1.26297 0.52788,2.52642 0.80955,3.78876 0.18079,0.90771 0.45574,1.80969 0.72452,2.71208 0.24927,0.90312 0.56927,1.80128 0.85996,2.70153 0.28091,0.91009 0.53708,1.82201 0.76206,2.73559 0.17896,0.83787 0.45468,1.66989 0.71502,2.50265 0.26692,0.81044 0.41979,1.62852 0.69858,2.43813 0.0674,0.19585 0.14638,0.39077 0.21958,0.58616 0.38831,1.0677 0.79037,2.13419 1.21597,3.19868 0.24374,0.63826 0.57013,1.26881 0.81094,1.90728 0.19185,0.49976 0.29532,1.00503 0.35426,1.51182 0.004,0.0463 0.005,0.0927 0.0108,0.13898 5.3e-4,0.005 0.0388,0.20269 0.051,0.20522 0.78256,0.16243 0.7002,0.21243 0.69413,-0.0159 -0.0479,-0.77514 -0.16461,-1.54861 -0.2256,-2.32368 -0.0278,-0.25966 -0.0501,-0.51946 -0.0833,-0.77897 -0.13351,-1.04491 -0.29487,-2.08913 -0.4275,-3.13408 -0.0995,-0.78408 -0.16274,-1.43314 -0.24428,-2.21622 -0.18063,-2.43803 -0.25586,-4.87794 -0.28684,-7.31739 -0.055,-1.65124 -0.0211,-3.30285 -0.0613,-4.95413 -0.01,-0.40816 -0.0619,-1.6046 -0.0797,-2.02853 -0.0877,-1.70419 -0.25013,-3.40724 -0.34609,-5.11134 -0.0631,-1.07966 -0.17243,-2.15844 -0.20021,-3.23848 0.0108,-0.41694 0.0124,-0.83371 0.008,-1.25053 -0.003,-0.33985 0.0255,-0.0151 -0.004,-0.2885 -0.0323,-0.24983 -0.20078,-0.20552 -1.0334,-0.32215 -0.0504,-0.007 0.008,0.0498 0.014,0.0746 0.0223,0.0852 0.0439,0.12827 0.0801,0.21545 0.22647,0.46888 0.39226,0.94387 0.56719,1.41764 0.2494,0.726 0.36792,1.45952 0.49842,2.19185 0.13276,0.80567 0.35867,1.60653 0.58685,2.40703 0.24991,0.90819 0.54999,1.81292 0.89771,2.71377 0.48411,1.20289 0.85681,2.41469 1.30475,3.62053 0.48044,1.24857 0.95442,2.49751 1.50191,3.73992 0.67438,1.48323 1.34024,2.96729 2.02861,4.4491 0.64358,1.42196 1.31922,2.84058 1.92327,4.26649 0.42366,0.98366 0.88621,1.96342 1.31011,2.94704 0.32863,0.83513 0.71407,1.6646 1.08311,2.49579 0.10153,0.25923 0.22148,0.51676 0.35813,0.77231 0.0206,0.0385 0.0425,0.0768 0.0646,0.11512 0.006,0.0109 -0.002,0.0291 0.0205,0.0325 0.26227,0.0388 0.53495,0.0595 0.80242,0.0892 -0.013,-0.0643 -0.0227,-0.12878 -0.039,-0.19291 -0.10906,-0.42901 -0.27257,-0.85523 -0.40885,-1.28232 -0.46724,-1.46424 0.1138,0.29936 -0.44399,-1.37711 -0.564,-1.69706 -0.913,-3.40741 -1.19065,-5.11964 -0.20279,-1.70485 -0.26081,-3.41265 -0.35929,-5.11936 -0.0893,-0.98743 -0.0836,-1.97715 -0.20509,-2.964 -0.042,-0.34075 -0.18451,-1.12268 -0.24501,-1.46526 -0.10607,-0.66247 -0.2957,-1.32076 -0.45527,-1.98048 -0.13854,-0.57279 -0.25363,-1.14693 -0.38423,-1.72014 -0.18331,-1.02304 -0.50984,-2.03782 -0.82339,-3.05309 -0.23145,-0.80917 -0.37581,-1.62329 -0.50815,-2.43724 -0.0831,-0.72296 -0.1884,-1.44528 -0.27746,-2.16804 -0.0147,-0.0766 -0.0913,-0.50299 -0.12892,-0.5926 -0.0394,-0.094 -0.12339,-0.1828 -0.16432,-0.2766 -0.0866,-0.19854 -0.081,-0.41312 -0.10238,-0.61502 -0.0414,-0.14839 -0.0578,-0.29831 -0.0927,-0.44686 -0.0268,-0.11396 -0.0808,-0.22544 -0.10643,-0.33963 -0.0885,-0.22988 -0.0601,-0.46115 -0.0332,-0.69261 -0.008,-0.13866 0.0157,-0.27717 0.0188,-0.41568 -0.0123,-0.0908 0.0873,-0.0741 -0.4097,-0.10825 -0.0355,-0.002 0.002,0.034 0.001,0.051 -0.008,0.17634 -0.0142,-0.0161 0.002,0.2202 0.0445,0.62611 0.29189,1.24345 0.52373,1.85862 0.41978,1.15275 0.75576,2.31178 1.13269,3.46772 0.36211,1.0081 0.65435,2.02185 1.01637,3.02991 0.2002,0.55747 0.42545,1.11284 0.63566,1.66948 0.65942,1.77501 1.31826,3.55003 1.9726,5.32545 0.52012,1.44448 1.02419,2.89092 1.60417,4.33037 0.32752,0.81287 0.45175,1.06125 0.81511,1.85483 0.81153,1.71904 1.86488,3.40887 2.8386,5.108 0.66532,1.10732 1.26632,2.2222 1.84228,3.34055 0.26044,0.47241 0.52588,0.94429 0.82407,1.41168 0.0784,0.0863 0.0871,0.19966 0.22091,0.2743 0.0541,0.0302 0.16634,0.0699 0.23226,0.0946 0.053,0.011 0.10609,0.0219 0.15914,0.0329 0,0 -0.0373,-0.007 -0.0373,-0.007 v 0 c 0.0886,0.0211 0.17712,0.0421 0.26568,0.0631 0.0319,10e-4 0.15353,0.0117 0.18828,-9.5e-4 0.0732,-0.0262 -0.11797,-0.22957 -0.1331,-0.25744 -0.35301,-0.47394 -0.6635,-0.95475 -0.95531,-1.43795 -0.63209,-1.13243 -1.30209,-2.25964 -2.01687,-3.38101 -1.02751,-1.69654 -2.03635,-3.39646 -2.88123,-5.116 -0.34272,-0.69596 -0.58319,-1.16408 -0.88873,-1.87067 -0.62081,-1.4357 -1.08768,-2.88433 -1.60098,-4.32913 -0.61364,-1.77574 -1.28584,-3.54657 -1.94297,-5.31876 -0.56586,-1.55872 -1.11867,-3.11912 -1.59238,-4.68478 -0.36183,-1.15989 -0.69711,-2.32246 -1.15754,-3.47472 -0.003,-0.007 -0.33545,-0.78896 -0.34396,-0.81193 -0.13095,-0.35359 -0.20415,-0.71132 -0.28689,-1.06787 -0.0128,-0.0877 -0.0234,-0.1418 -0.0276,-0.22527 -8e-4,-0.0169 0.0274,-0.0396 5.2e-4,-0.0507 -0.12106,-0.0504 -0.27285,-0.0813 -0.41134,-0.12036 -0.004,-0.001 0.003,0.004 0.004,0.006 -0.001,0.008 -0.003,0.0163 -0.004,0.0245 2.2e-4,0.14227 0.0253,0.28457 0.0256,0.42689 0.0424,0.2423 0.0774,0.48573 0.16125,0.72568 0.13875,0.27362 0.27091,0.54805 0.3698,0.82566 0.059,0.21738 0.0559,0.17442 0.0811,0.39898 0.008,0.0717 0.0286,0.14366 0.0185,0.21534 -0.0103,0.0738 -0.0705,0.14489 -0.0794,0.21877 -0.0228,0.18999 0.076,0.38051 0.0378,0.57064 0.10659,0.72537 0.21336,1.45077 0.31253,2.17635 0.0798,0.79756 0.11271,1.59655 0.30312,2.39057 0.22505,1.00887 0.48999,2.01542 0.70446,3.02483 0.32541,1.2275 0.56754,2.4587 0.80325,3.69073 0.26669,1.47641 0.40026,2.95633 0.49376,4.43737 0.11811,1.71678 0.26246,3.43342 0.4738,5.14824 0.0419,0.30801 0.0739,0.61636 0.12577,0.92403 0.23656,1.40348 0.69238,2.79704 1.04823,4.19413 0.41893,1.55772 -0.006,-0.013 0.37092,1.36004 0.11445,0.41743 0.25006,0.83705 0.31546,1.25725 0.009,0.0607 0.0101,0.12153 0.0152,0.18229 0.26274,0.0897 0.52298,0.18113 0.78822,0.26919 0.026,0.009 -0.0549,-0.0174 -0.0698,-0.0307 -0.0425,-0.038 -0.0714,-0.0792 -0.0991,-0.12017 -0.17355,-0.25661 -0.27885,-0.52334 -0.41739,-0.7842 -0.40024,-0.82993 -0.76265,-1.6632 -1.10012,-2.49934 -0.45274,-0.98983 -0.94979,-1.97493 -1.39147,-2.9659 -0.69777,-1.43262 -1.38759,-2.86612 -2.07054,-4.30035 -0.68915,-1.4818 -1.32536,-2.96906 -2.03029,-4.44925 -0.55567,-1.24794 -1.07381,-2.49954 -1.56476,-3.75359 -0.42956,-1.20681 -0.85236,-2.41416 -1.30025,-3.61948 -0.30596,-0.89694 -0.56436,-1.79713 -0.82921,-2.69697 -0.22777,-0.80099 -0.46544,-1.60204 -0.59739,-2.40819 -0.12215,-0.7293 -0.21677,-1.45969 -0.45472,-2.18341 -0.15285,-0.55967 -0.025,-0.0778 -0.15724,-0.61371 -0.0374,-0.15155 -0.0927,-0.3022 -0.11785,-0.45433 -0.0108,-0.0653 -0.006,-0.20606 -0.005,-0.2783 0.003,-0.0105 0.0378,-0.15548 0.0486,-0.17652 0.009,-0.0172 0.0716,-0.0391 0.0412,-0.0494 -1.13168,-0.38136 -1.00489,-0.41096 -0.93005,-0.16734 0.0131,0.17093 -0.003,0.33841 -0.009,0.50934 -0.0117,0.34457 0.0273,0.68916 0.0288,1.03367 0.0471,1.0917 0.24137,2.18012 0.33128,3.27112 0.1702,1.7135 0.3411,3.42694 0.47274,5.14124 0.16493,2.33978 0.3133,4.68013 0.30516,7.02154 0.0757,2.44845 0.13808,4.89744 0.39045,7.34366 0.26231,2.0325 0.51984,4.06589 0.64237,6.10155 0.0424,0.7672 0.0957,1.53422 0.13743,2.30141 -0.002,0.2374 -0.0712,0.12831 0.66806,0.33285 0.0249,0.007 -0.0253,-0.0246 -0.0342,-0.0376 -0.071,-0.10261 -0.0927,-0.21132 -0.11451,-0.3181 -0.11301,-0.50806 -0.20529,-1.01799 -0.38244,-1.52213 -0.27651,-0.64703 -0.66103,-1.28273 -0.91763,-1.93203 -0.45706,-1.06696 -0.89036,-2.1363 -1.26903,-3.21023 -0.32806,-1.00005 -0.59109,-2.00349 -0.85029,-3.008 -0.25745,-0.83353 -0.52637,-1.66642 -0.72345,-2.50383 -0.23098,-0.91528 -0.49884,-1.82799 -0.77792,-2.74024 -0.29252,-0.89757 -0.58642,-1.79492 -0.83542,-2.69553 -0.27799,-0.90754 -0.57087,-1.81417 -0.78642,-2.72574 -0.30923,-1.26782 -0.60705,-2.53616 -0.88286,-3.80573 -0.26031,-1.2594 -0.41622,-2.52205 -0.58549,-3.78481 -0.0798,-0.79775 -0.0679,-1.59606 -0.1203,-2.39424 -0.009,-0.39737 0.0147,-0.79416 0.0403,-1.19123 -0.23331,-0.0653 -0.45492,-0.14117 -0.69992,-0.19603 -0.0226,-0.005 -0.0216,0.0214 -0.0311,0.0324 -0.0186,0.0216 -0.0406,0.0428 -0.053,0.0654 -0.062,0.11317 -0.07,0.23266 -0.0733,0.34873 -0.003,0.33083 -0.0146,0.66165 -0.0323,0.99236 0.0163,0.8018 0.0863,1.60352 0.0653,2.40559 -0.0274,1.65861 -0.138,3.31672 -0.24171,4.97456 -0.21016,3.59778 0.10546,-1.70978 -0.1327,1.97653 -0.0876,1.35544 -0.13744,2.71141 -0.28953,4.06582 -0.0273,0.27291 -0.18453,1.85876 -0.21746,2.13274 -0.18111,1.50657 -0.45529,3.01059 -0.75225,4.51285 -0.33787,1.77308 -0.67913,3.5466 -1.11314,5.31504 -0.28379,1.0629 -0.67764,2.11627 -1.19666,3.15934 -0.27372,0.60271 -0.52617,1.2074 -0.81248,1.80874 -0.0157,0.0244 -0.0292,0.0491 -0.047,0.0732 -0.005,0.007 -0.0364,0.0168 -0.0225,0.0211 0.24624,0.0766 0.5137,0.1368 0.76469,0.20987 0.009,0.002 -0.0224,0.008 -0.0289,0.004 -0.0237,-0.0133 0.02,-0.0402 -0.003,-0.0524 -0.15163,-0.27474 -0.28593,-0.5514 -0.40817,-0.82946 -0.26844,-0.70038 -0.51307,-1.40278 -0.78463,-2.10291 -0.23088,-0.67286 -0.49023,-1.34353 -0.68182,-2.01936 -0.34764,-1.01404 -0.80523,-2.01841 -1.18094,-3.03015 -0.20571,-0.57184 -0.26325,-0.71608 -0.44752,-1.29201 -0.0669,-0.20903 -0.12155,-0.41893 -0.19215,-0.62768 -0.20251,-0.59881 -0.46564,-1.19296 -0.66661,-1.79193 -0.5826,-1.63335 -1.19592,-3.26508 -1.60203,-4.9112 -0.52682,-1.86033 -0.99298,-3.72465 -1.37773,-5.59288 -0.35266,-1.62596 -0.65519,-3.25394 -0.89522,-4.8846 -0.13379,-0.81463 -0.28223,-1.62927 -0.3879,-2.44487 -0.0124,-0.0953 -0.14001,-1.29932 -0.15964,-1.44136 -0.0247,-0.1784 -0.061,-0.35638 -0.0915,-0.53457 -0.0801,-0.48567 -0.055,-0.33088 -0.12362,-0.75657 -0.0125,-0.0777 -0.0266,-0.15542 -0.0375,-0.23321 -0.0425,-0.30511 0.12577,-0.10758 -1.08141,-0.39902 -0.0171,-0.004 5.3e-4,0.0182 10e-4,0.0273 0.0447,0.21831 0.11027,0.43632 0.10365,0.65616 0.006,0.61123 -0.0179,1.22232 -0.0602,1.83322 -0.0689,1.08395 -0.16095,2.16749 -0.20384,3.25179 -0.10919,1.34312 -0.23779,2.68619 -0.44377,4.02684 -0.224,1.34995 -0.43935,2.70023 -0.67536,4.04971 -0.30702,1.61637 -0.53519,3.23541 -0.68903,4.85678 -0.1766,1.62846 -0.3657,3.25948 -0.23544,4.89049 0.17424,1.29999 0.35214,2.59985 0.44076,3.902 0.0696,1.08336 0.13615,2.16653 0.0727,3.25049 0.01,0.31846 0.0218,0.63688 0.0353,0.95531 0.006,0.13911 0.0184,0.29194 0.006,0.43201 -0.004,0.0428 -0.0164,0.0853 -0.0246,0.12798 0.22577,0.0716 0.45115,0.1434 0.67731,0.21468 0.0186,0.006 -0.0447,-0.009 -0.0547,-0.0184 -0.0282,-0.0269 -0.0399,-0.057 -0.055,-0.0861 -0.10583,-0.20402 -0.17001,-0.41285 -0.23534,-0.62036 -0.14685,-0.58142 -0.33944,-1.15992 -0.63287,-1.72924 -0.54086,-1.09783 -1.02937,-2.20131 -1.55125,-3.30117 -0.60589,-1.30124 -1.23785,-2.59968 -1.82457,-3.90285 -0.65555,-1.63569 -1.2814,-3.27452 -1.75932,-4.92441 -0.60527,-2.10416 -1.08828,-4.21562 -1.46919,-6.33161 -0.17417,-0.98106 -0.36522,-1.96126 -0.54966,-2.94189 -0.0887,-0.47174 -0.23451,-1.28291 -0.34511,-1.75947 -0.058,-0.24991 -0.13103,-0.499 -0.19654,-0.74849 -0.16984,-0.67387 -0.30617,-1.34965 -0.49534,-2.02236 -0.0853,-0.30354 -0.21917,-0.69745 -0.28767,-1.00264 -0.0337,-0.15024 -0.0513,-0.30121 -0.0769,-0.45181 -0.0983,-0.50966 -0.0404,-0.23469 -0.14885,-0.70613 -0.0187,-0.0812 -0.0379,-0.16242 -0.0556,-0.24369 -0.0108,-0.0498 0.0452,-0.11426 -0.0299,-0.14938 -0.87979,-0.41189 -0.69715,-0.45191 -1.11669,-0.3115 -0.0143,0.0393 -0.0438,0.0776 -0.0508,0.1174 -0.006,0.035 0.003,0.0702 0.002,0.10534 -0.002,0.16799 -0.002,0.33587 0.008,0.50386 0.0272,0.55807 0.0687,1.11587 0.10179,1.67385 0.0303,1.01241 -0.005,2.02442 -0.0751,3.03644 -0.0676,1.40149 -0.20105,2.80285 -0.49419,4.19826 -0.19799,1.31036 -0.38914,2.62116 -0.67632,3.928 -0.26925,1.29138 -0.51947,2.58378 -0.85537,3.87179 -0.32988,1.36846 -0.63002,2.73864 -0.91393,4.10942 -0.28689,1.46147 -0.51361,2.9251 -0.7605,4.38815 -0.20315,1.16338 -0.34171,2.32838 -0.52026,3.49257 -0.0341,0.2368 -0.0907,0.60406 -0.11338,0.84962 -0.04,0.43318 -0.0229,0.86694 -0.0573,1.30018 -0.0155,0.16399 -0.014,0.3285 -0.0451,0.492 -0.0102,0.0536 -0.0352,0.10623 -0.0533,0.15931 -0.0124,0.0365 -0.0902,0.0819 -0.0381,0.10926 0.19625,0.10304 0.46174,0.17172 0.71135,0.24422 0.029,0.008 -0.02,-0.0309 -0.03,-0.0463 -0.0667,-0.29292 -0.11866,-0.58645 -0.19631,-0.87878 -0.1147,-0.42578 -0.40387,-0.83348 -0.54988,-1.25694 -0.26404,-0.72046 -0.488995,-1.44423 -0.736627,-2.16598 -0.487018,-1.53105 -0.921991,-3.066 -1.45973,-4.59329 -0.287586,-0.82526 -0.594696,-1.64916 -0.857877,-2.47628 -0.247428,-0.77762 -0.297987,-0.98421 -0.501716,-1.77206 -0.07673,-0.29671 -0.150392,-0.59358 -0.225586,-0.89038 -0.391084,-1.96245 -0.701001,-3.92812 -0.999202,-5.89419 -0.172183,-1.02772 -0.347038,-2.05506 -0.566751,-3.08081 -0.221988,-1.03636 -0.195289,-0.8393 -0.434713,-1.84205 -0.06708,-0.28095 -0.129714,-0.56214 -0.194574,-0.8432 -0.307502,-1.27266 -0.625078,-2.54568 -0.767445,-3.82556 -0.06034,-0.41277 -0.09137,-0.68614 -0.184566,-1.09386 -0.124579,-0.54501 -0.316396,-1.08634 -0.444849,-1.63115 -0.019,-0.086 -0.03543,-0.1722 -0.05702,-0.25809 -0.01093,-0.0434 0.02762,-0.10036 -0.04047,-0.12986 -1.07827,-0.46713 -0.788953,-0.3986 -0.918486,-0.19143 -0.05974,0.19803 -0.05154,0.39938 -0.08324,0.59855 -0.04568,0.41753 -0.06424,0.83477 -0.03165,1.25284 0.02188,0.58684 0.07337,1.17364 0.181094,1.75847 0.184648,0.91053 0.362763,1.82177 0.494581,2.73434 0.05953,0.52111 0.09116,0.70589 0.107124,1.237 0.03136,1.04315 -0.09631,2.08535 -0.256378,3.12524 -0.32797,2.04684 -0.720829,4.0909 -1.184818,6.13188 -0.240247,1.16862 -0.48274,2.33745 -0.749715,3.50477 -0.251336,1.09895 -0.53086,2.19651 -0.719442,3.29856 -0.285808,1.8272 -0.487963,3.65763 -0.46114,5.4906 -0.02416,0.93743 -0.04344,1.87538 -0.102785,2.81233 -0.02238,0.17643 -0.07124,0.15627 0.610248,0.2627 0.068,0.0106 -0.05689,-0.0625 -0.07704,-0.0952 -0.13026,-0.21081 -0.185098,-0.4309 -0.277379,-0.64553 -0.295426,-0.72113 -0.587386,-1.44256 -0.869376,-2.16491 -0.654571,-1.47391 -1.325488,-2.94626 -1.922227,-4.42582 -0.710171,-1.67916 -1.368504,-3.36303 -2.069057,-5.04309 -0.495904,-1.25709 -0.97314,-2.51609 -1.342867,-3.7832 -0.364908,-1.23184 -0.679492,-2.46679 -1.035441,-3.69923 -0.224182,-0.81787 -0.446273,-1.63585 -0.621083,-2.45652 -0.184335,-0.86538 -0.183121,-0.94307 -0.310449,-1.81145 -0.04106,-0.28003 -0.08153,-0.56008 -0.12229,-0.84012 -0.150252,-1.40184 -0.220009,-2.80543 -0.423082,-4.20602 -0.11143,-0.80385 -0.260861,-1.60623 -0.403998,-2.40892 -0.03309,-0.19875 -0.02492,-0.18051 -0.06964,-0.35407 -0.007,-0.027 0.02154,-0.0639 -0.02336,-0.0808 -0.415041,-0.15639 -0.758068,-0.37299 -0.853091,-0.17101 -0.05519,0.14941 -0.02964,0.30204 -0.03882,0.45296 0.01056,0.28253 0.03762,0.56523 0.07928,0.84708 0.12595,0.51031 0.250103,1.02047 0.307536,1.53396 0.09959,0.91363 0.174768,1.82815 0.155073,2.74325 -0.01603,1.3468 -0.06696,2.69319 -0.193567,4.03881 -0.121383,1.54399 -0.274955,3.08766 -0.310806,4.63278 -0.04548,1.7448 -0.120436,3.48956 -0.249383,5.23345 -0.173609,1.962 -0.420076,3.92191 -0.672513,5.88192 -0.05833,0.53234 -0.158451,1.36341 -0.183067,1.90297 -0.04755,1.04232 0.0401,2.08579 0.137263,3.1268 0.117842,0.94438 0.271843,1.88765 0.400894,2.83159 0.191603,0.0642 0.373065,0.13582 0.574815,0.19258 0.03536,0.01 -0.05236,-0.031 -0.06603,-0.0494 -0.0357,-0.0481 -0.05595,-0.0984 -0.08066,-0.14803 -0.142812,-0.28666 -0.267579,-0.57556 -0.383313,-0.86492 -0.10772,-0.23466 -0.267581,-0.59166 -0.390514,-0.82385 -0.310343,-0.58615 -0.701122,-1.16267 -1.058953,-1.7424 -0.661559,-0.96029 -1.38177,-1.91211 -1.926397,-2.88969 -0.613777,-1.08052 -1.246954,-2.15932 -1.702998,-3.25816 -0.435216,-1.00682 -0.783402,-2.02186 -1.23112,-3.02765 -0.17568,-0.42944 -0.341495,-0.82163 -0.495604,-1.25397 -0.321654,-0.90237 -0.570513,-1.81039 -0.874559,-2.71407 -0.557972,-1.84383 -1.006692,-3.69428 -1.380643,-5.54856 -0.100799,-0.58068 -0.192569,-1.16171 -0.297143,-1.74224 -0.190876,-1.05962 -0.425683,-2.11767 -0.5411,-3.18013 -0.09515,-0.72013 -0.191317,-1.44025 -0.334409,-2.15869 -0.09724,-0.4882 -0.15534,-0.66736 -0.264605,-1.14861 -0.04067,-0.17913 -0.07688,-0.35848 -0.115324,-0.53773 -0.137234,-0.67797 -0.303284,-1.35959 -0.28652,-2.04122 0.0092,-0.0458 0.01408,-0.0919 0.02759,-0.13742 0.0098,-0.0329 0.09114,-0.0739 0.04215,-0.0977 -0.819851,-0.39734 -0.796341,-0.35152 -0.797568,-0.0936 0.01783,0.28508 0.05177,0.56992 0.06786,0.85504 0.05296,0.54719 0.07913,1.09442 0.0551,1.64229 -0.03598,0.79379 -0.06028,1.58775 -0.122653,2.38122 -0.03782,1.06589 -0.107926,2.1319 -0.229534,3.19638 -0.194757,1.27817 -0.46515,2.5537 -0.607568,3.8335 -0.15881,1.54604 -0.335954,3.09176 -0.558395,4.63604 -0.26653,1.67512 -0.644861,3.34609 -0.848071,5.02331 -0.02201,0.23105 -0.05071,0.46197 -0.06604,0.69315 -0.07183,1.08315 0.0186,2.16714 0.0172,3.25041 0.009,0.36268 0.01905,1.00404 0.05007,1.37239 0.067,0.79524 0.25341,1.58746 0.328814,2.3825 0.160433,1.16337 0.309031,2.32686 0.380077,3.49241 0.02767,0.2279 0.0199,0.28825 0.0886,0.4912 0.01064,0.0314 -0.0056,0.0718 0.04401,0.0932 0.213577,0.0923 0.462857,0.16512 0.712838,0.23378 0.04101,0.0112 0.02021,-0.0833 -0.0036,-0.0674 -0.0934,-0.22555 -0.281051,-0.44183 -0.34313,-0.67137 -0.215019,-0.5025 -0.402241,-1.00711 -0.5939,-1.51176 -0.32353,-0.8495 -0.655926,-1.70007 -1.135555,-2.53337 -0.44814,-0.74737 -0.924483,-1.49107 -1.354264,-2.24094 -0.124452,-0.21713 -0.236143,-0.43588 -0.359894,-0.65311 -0.116711,-0.20487 -0.24098,-0.40875 -0.361469,-0.61313 -0.637026,-1.13501 -1.350227,-2.25959 -2.070269,-3.3833 -0.797875,-1.23124 -1.648322,-2.45479 -2.381843,-3.69532 -0.03725,-0.0633 -0.802756,-1.36274 -0.848434,-1.44392 -0.422767,-0.75134 -0.789654,-1.5082 -1.123622,-2.26944 -0.113667,-0.25909 -0.222059,-0.51871 -0.333089,-0.77806 -0.605348,-1.55703 -1.104966,-3.12188 -1.56645,-4.6899 -0.392527,-1.29936 -0.775676,-2.59969 -1.07121,-3.90497 -0.09688,-0.38659 -0.181692,-0.77388 -0.286324,-1.16001 -0.182695,-0.67422 -0.44231,-1.34481 -0.515856,-2.02494 -0.05425,-0.30578 -0.09422,-0.61034 -0.123341,-0.91683 -0.0054,-0.0567 -0.0099,-0.11334 -0.01651,-0.16997 -0.0034,-0.0292 0.03507,-0.0697 -0.01363,-0.0877 -0.218942,-0.0809 -0.488119,-0.12529 -0.732178,-0.18793 0.0019,0.28285 -0.003,0.56579 0.0275,0.84848 -0.01871,0.31072 0.0045,0.62198 0.02307,0.93264 -0.0029,0.28086 -0.02812,0.56219 0.04484,0.84198 0.09477,0.36179 0.207666,0.72257 0.2599,1.08663 0.09625,0.51687 0.08839,1.03621 0.134538,1.55441 0.06467,0.72819 0.176522,1.45531 0.230166,2.18378 0.103662,1.03555 0.174959,2.07182 0.317993,3.10645 0.10795,1.25598 0.172304,2.51263 0.278955,3.76866 0.03783,0.40301 0.104545,1.09031 0.132564,1.48698 0.08458,1.19739 0.08731,2.39558 0.143055,3.59326 0.04803,1.08635 0.07998,2.17396 0.184677,3.25952 0.0833,0.86374 0.156977,1.21052 0.291425,2.0669 0.05483,0.34925 0.107566,0.69858 0.161351,1.04787 0.272227,1.66617 0.567095,3.33138 0.817906,4.99831 0.08841,0.52054 0.07087,0.43708 0.16101,0.90319 0.01664,0.086 0.03429,0.172 0.05142,0.25801 0.01162,0.0584 -0.0429,0.12959 0.03486,0.17518 0.162251,0.0951 0.403953,0.1539 0.628756,0.21382 0.03797,0.0101 -0.03,-0.0388 -0.04499,-0.0582 -0.15987,-0.29387 -0.311172,-0.58898 -0.484148,-0.88108 -0.440629,-0.69337 -0.869532,-1.38843 -1.323806,-2.07993 -0.646742,-1.01374 -1.232974,-2.03672 -1.775372,-3.06413 -0.65404,-1.25323 -1.364219,-2.49966 -1.99806,-3.75522 -0.63908,-1.2817 -1.306512,-2.56147 -1.776709,-3.86029 -0.23265,-0.58274 -0.435784,-1.16791 -0.666784,-1.75072 -0.207769,-0.5242 -0.461095,-1.04424 -0.658468,-1.56942 -0.335444,-0.9623 -0.652259,-1.92651 -0.915713,-2.89385 -0.196101,-0.77718 -0.397372,-1.55438 -0.629295,-2.32931 -0.268097,-0.76417 -0.518973,-1.52959 -0.724467,-2.29821 -0.217569,-0.80058 -0.426262,-1.60117 -0.516649,-2.40785 -0.11667,-0.63256 -0.267636,-1.2637 -0.360997,-1.89722 -0.09966,-0.54185 -0.190429,-1.08507 -0.151051,-1.62956 0.02289,-0.37628 0.02809,-0.7546 0.141063,-1.12786 0.02209,-0.0587 0.04094,-0.11762 0.06367,-0.17624 0.0064,-0.0164 0.04822,-0.0375 0.02252,-0.049 -0.483261,-0.2148 -0.369112,-0.20952 -0.547859,-0.10303 -0.02612,0.0529 -0.06237,0.10494 -0.07965,0.1587 -0.06983,0.21721 -0.0069,0.43885 -0.0711,0.65631 0.0037,0.46876 0.05431,0.93556 0.115263,1.40335 0.05985,0.71588 0.150566,1.43099 0.142883,2.14793 0.07244,1.2637 0.142843,2.52743 0.189481,3.79142 0.07176,1.43737 0.06864,2.87532 0.12564,4.31285 0.0269,1.93632 0.08094,3.87262 0.227404,5.80786 0.125627,2.0373 0.225449,4.07496 0.386361,6.11172 0.21106,1.72632 0.409593,3.45296 0.576733,5.18036 0.07902,0.86306 0.153218,1.72759 0.369702,2.58592 0.01,0.0452 -0.03654,0.10283 0.0299,0.13551 0.917874,0.45154 0.713269,0.2935 0.650785,0.106 -0.06826,-0.14513 -0.163021,-0.28541 -0.284094,-0.42279 -0.229899,-0.32194 -0.43534,-0.64772 -0.59118,-0.97973 -0.269917,-0.48462 -0.603898,-0.95988 -0.887743,-1.44263 -0.442907,-0.74118 -0.940221,-1.47431 -1.382358,-2.21554 -0.572963,-0.97528 -1.096997,-1.95658 -1.671074,-2.93171 -0.663159,-1.09789 -1.239366,-2.20793 -1.642118,-3.33468 -0.532632,-1.35385 -1.053494,-2.71061 -1.360159,-4.081 -0.241657,-1.09482 -0.513668,-2.1886 -0.661797,-3.2875 -0.15788,-1.04805 -0.347927,-2.09549 -0.42544,-3.1458 -0.105449,-0.88802 -0.144449,-1.77626 -0.172653,-2.66553 -0.04653,-0.71123 -0.127112,-1.4218 -0.155001,-2.13332 -0.0333,-0.56832 -0.02689,-1.13698 -0.05477,-1.70538 -0.02811,-0.51204 -0.08122,-1.02352 -0.196255,-1.53304 -0.06911,-0.41674 -0.154752,-0.83283 -0.253989,-1.24819 -0.04425,-0.25367 -0.07967,-0.50795 -0.159046,-0.75985 -0.02508,-0.13748 0.03884,-0.15342 -0.271558,-0.23128 -0.04286,-0.0107 0.141959,0.0944 0.04263,0.066 0.03983,0.15869 0.06625,0.31823 0.101365,0.47756 0.05258,0.19626 0.02768,0.39142 0.01765,0.58872 -0.04017,0.302 -0.04052,0.60154 0.0319,0.90291 0.04742,0.60186 0.0098,1.20322 -0.01416,1.80518 -0.0279,0.72492 0.04249,1.44997 0.05119,2.17491 0.04663,1.02913 0.04529,2.05877 -0.13785,3.08554 -0.101685,0.44695 -0.189177,0.89461 -0.291936,1.34151 -0.24664,1.07264 -0.605055,2.13917 -0.775928,3.21585 -0.107159,0.53811 -0.229939,1.0755 -0.336457,1.61364 -0.179478,0.90673 -0.319469,1.81535 -0.506458,2.72178 -0.21921,1.22262 -0.442799,2.44501 -0.697142,3.66612 -0.219435,1.13114 -0.46054,2.26098 -0.732298,3.38959 -0.200589,0.97825 -0.365858,1.95947 -0.746218,2.92687 -0.237045,0.75503 -0.429069,1.51231 -0.627772,2.26969 -0.12755,0.43407 -0.257677,0.8678 -0.403571,1.30046 z" />
    <g
       id="g12"
       style="fill:#281818;fill-opacity:1">
      <rect
         style="fill:#281818;fill-opacity:1;stroke-width:3;stroke-linecap:round;stroke-linejoin:bevel;stroke-miterlimit:0.5"
         id="rect1"
         width="130.33257"
         height="12.197362"
         x="27.858126"
         y="168.44966" />
      <path
         style="fill:#281818;fill-opacity:1;stroke-width:12.3077;stroke-linecap:round;stroke-linejoin:bevel;stroke-miterlimit:0.5"
         d="m 122.02101,634.18563 c 1.9853,-6.91079 6.35216,-27.30677 8.80373,-41.11896 3.76915,-21.23536 4.18535,-22.97057 5.62471,-23.45036 0.77278,-0.2576 1.52619,1.58257 1.96665,4.80346 2.38143,17.41417 8.52669,34.90724 18.13563,51.62484 l 6.08308,10.58333 H 141.9771 121.3194 Z"
         id="path2"
         transform="scale(0.26458333)" />
      <path
         style="fill:#281818;fill-opacity:1;stroke-width:12.3077;stroke-linecap:round;stroke-linejoin:bevel;stroke-miterlimit:0.5"
         d="m 171.03074,633.10016 c -1.34121,-8.27435 -2.88523,-28.76306 -3.52864,-46.8243 -0.81636,-22.91591 0.17179,-24.35541 5.63422,-8.20769 1.90823,5.641 4.82099,13.43007 6.47281,17.30903 3.78787,8.89508 16.01357,33.05201 19.09139,37.72296 l 2.32455,3.52778 h -14.71125 -14.71125 z"
         id="path3"
         transform="scale(0.26458333)" />
      <path
         style="fill:#281818;fill-opacity:1;stroke-width:12.3077;stroke-linecap:round;stroke-linejoin:bevel;stroke-miterlimit:0.5"
         d="m 206.46613,629.84375 c -3.25095,-17.87538 -5.72356,-68.67906 -3.30334,-67.87231 0.63898,0.21299 2.49366,4.0315 4.1215,8.48557 4.05188,11.08664 6.11818,14.92658 20.12847,37.40598 6.69754,10.74615 13.2314,21.61442 14.51969,24.1517 l 2.34234,4.61325 h -18.28742 -18.28742 z"
         id="path4"
         transform="scale(0.26458333)" />
      <path
         style="fill:#281818;fill-opacity:1;stroke-width:12.3077;stroke-linecap:round;stroke-linejoin:bevel;stroke-miterlimit:0.5"
         d="m 250.25015,634.73705 c -0.39908,-1.03999 -1.00082,-7.5121 -1.3372,-14.38247 -0.50682,-10.35174 -0.11949,-15.55967 2.26112,-30.40184 1.57999,-9.85063 3.66902,-22.93296 4.64229,-29.07183 0.97326,-6.13887 2.25189,-11.0008 2.8414,-10.8043 0.5895,0.1965 2.20679,5.86489 3.59396,12.59641 6.36111,30.86858 13.85445,50.83719 25.58509,68.18041 1.68798,2.4956 3.06905,4.81579 3.06905,5.15598 0,0.34019 -8.98427,0.61853 -19.96505,0.61853 -17.97807,0 -20.03727,-0.18819 -20.69066,-1.89089 z"
         id="path5"
         transform="scale(0.26458333)" />
      <path
         style="fill:#281818;fill-opacity:1;stroke-width:12.3077;stroke-linecap:round;stroke-linejoin:bevel;stroke-miterlimit:0.5"
         d="m 298.91349,633.76923 c -0.39462,-1.57229 0.33816,-13.17325 1.6284,-25.77991 1.29025,-12.60665 2.70285,-28.74397 3.13912,-35.8607 0.43627,-7.11674 1.28168,-13.09086 1.87869,-13.27583 0.59701,-0.18497 2.60105,5.88204 4.45342,13.48225 2.24932,9.22887 6.49161,21.35115 12.77262,36.49755 5.17256,12.47344 9.69359,23.83017 10.04672,25.23717 l 0.64206,2.55818 h -16.92177 -16.92177 z"
         id="path6"
         transform="scale(0.26458333)" />
      <path
         style="fill:#281818;fill-opacity:1;stroke-width:12.3077;stroke-linecap:round;stroke-linejoin:bevel;stroke-miterlimit:0.5"
         d="m 339.7735,632.01469 c 0.0336,-7.20072 1.87244,-18.35323 6.0405,-36.6346 2.10978,-9.25363 4.79933,-21.6841 5.97678,-27.62326 1.17745,-5.93917 2.37778,-11.03545 2.66739,-11.32507 1.53305,-1.53305 2.93429,3.39076 5.96489,20.96002 2.14381,12.42828 5.21918,25.2814 8.5628,35.7871 2.86964,9.01643 5.56438,17.98101 5.98832,19.92128 l 0.77081,3.52778 h -17.9965 -17.9965 z"
         id="path7"
         transform="scale(0.26458333)" />
      <path
         style="fill:#281818;fill-opacity:1;stroke-width:12.3077;stroke-linecap:round;stroke-linejoin:bevel;stroke-miterlimit:0.5"
         d="m 384.74956,634.18563 c 0.29407,-1.34327 1.30045,-7.08269 2.2364,-12.75427 0.93594,-5.67157 3.62574,-18.65728 5.97733,-28.85712 3.82373,-16.5852 6.99753,-34.16038 7.82409,-43.32661 0.18365,-2.03659 0.90208,-3.25641 1.91791,-3.25641 1.21891,0 2.47169,4.06326 5.02005,16.28205 5.10194,24.46262 7.44572,31.85231 16.80931,52.99787 4.71225,10.64157 8.56773,19.80022 8.56773,20.35256 0,0.58561 -10.18963,1.00424 -24.44374,1.00424 h -24.44375 z"
         id="path8"
         transform="scale(0.26458333)" />
      <path
         style="fill:#281818;fill-opacity:1;stroke-width:12.3077;stroke-linecap:round;stroke-linejoin:bevel;stroke-miterlimit:0.5"
         d="m 437.45322,619.36843 c -1.59147,-19.19166 -1.15161,-28.0603 2.18571,-44.06953 1.24453,-5.97008 2.86904,-14.97313 3.61001,-20.00678 0.7482,-5.08283 1.92908,-9.34605 2.65588,-9.58832 0.77746,-0.25915 1.30867,0.615 1.30867,2.15354 0,3.05197 6.35458,29.12294 10.12811,41.55267 1.44996,4.77607 5.62584,17.03816 9.27973,27.24909 3.65389,10.21093 6.64343,18.88112 6.64343,19.26708 0,0.38597 -7.73557,0.70176 -17.19015,0.70176 h -17.19015 z"
         id="path9"
         transform="scale(0.26458333)" />
      <path
         style="fill:#281818;fill-opacity:1;stroke-width:12.3077;stroke-linecap:round;stroke-linejoin:bevel;stroke-miterlimit:0.5"
         d="m 485.20493,635.67503 c 0,-0.5241 0.76631,-2.78697 1.70293,-5.0286 2.11328,-5.05779 7.57154,-35.65723 9.14989,-51.29499 0.64676,-6.40795 1.43886,-14.24307 1.76021,-17.41138 0.34663,-3.41765 1.06006,-5.60196 1.75412,-5.37061 0.64341,0.21447 2.49153,5.49326 4.10692,11.73064 4.2402,16.37238 12.52196,44.66565 15.00553,51.26396 1.17306,3.11655 3.14944,8.23088 4.39196,11.36517 l 2.25913,5.69872 h -20.06535 c -11.03594,0 -20.06534,-0.42881 -20.06534,-0.95291 z"
         id="path10"
         transform="scale(0.26458333)" />
      <path
         style="fill:#281818;fill-opacity:1;stroke-width:12.3077;stroke-linecap:round;stroke-linejoin:bevel;stroke-miterlimit:0.5"
         d="m 528.25583,621.70273 c -2.46702,-20.32834 -3.79028,-71.30839 -1.83399,-70.65629 0.77476,0.25825 3.47832,6.06494 6.00791,12.90374 2.52959,6.83881 10.20996,24.88996 17.06749,40.11367 6.85754,15.22371 12.81465,28.77851 13.23802,30.12178 l 0.76977,2.44231 h -16.71895 -16.71896 z"
         id="path11"
         transform="scale(0.26458333)" />
      <path
         style="fill:#281818;fill-opacity:1;stroke-width:12.3077;stroke-linecap:round;stroke-linejoin:bevel;stroke-miterlimit:0.5"
         d="m 568.45194,635.81384 c -0.76721,-1.35114 -3.83851,-11.2519 -5.64009,-18.18162 -0.93126,-3.58205 -2.40426,-15.54935 -3.27333,-26.59401 -0.86907,-11.04465 -2.34783,-22.94231 -3.28613,-26.43925 -1.66526,-6.20621 -1.46611,-8.63561 0.54064,-6.5952 0.54801,0.5572 3.77654,8.58425 7.17449,17.83788 6.95211,18.93264 9.12918,23.52638 21.23499,44.807 4.70216,8.26585 8.54938,15.24268 8.54938,15.50406 0,0.83885 -24.81998,0.50642 -25.29995,-0.33886 z"
         id="path12"
         transform="scale(0.26458333)" />
    </g>
    <path
       style="fill:#fc2828;fill-opacity:1;stroke-width:3.22881;stroke-linecap:round;stroke-linejoin:bevel;stroke-miterlimit:0.5"
       d="m 137.42422,570.09504 c -0.54601,-0.83331 -0.92527,-0.8885 -1.6429,-0.23905 -0.8526,0.77159 -0.92962,0.22764 -0.28289,-1.99813 0.33565,-1.15518 0.75655,-3.0838 0.93533,-4.28583 0.35914,-2.4147 0.91946,-2.80345 1.03244,-0.71631 0.0895,1.65379 0.64455,6.49465 0.83818,7.31051 0.20299,0.85533 -0.29973,0.81466 -0.88016,-0.0712 z"
       id="path13"
       transform="scale(0.26458333)" />
    <path
       style="fill:#fc2828;fill-opacity:1;stroke-width:3.22881;stroke-linecap:round;stroke-linejoin:bevel;stroke-miterlimit:0.5"
       d="m 169.7452,568.86574 c -0.30497,-0.5978 -0.76816,-1.26423 -1.02931,-1.48096 -0.41467,-0.34415 -0.54108,-0.3062 -0.99801,0.29955 -0.28775,0.38149 -0.57835,0.63146 -0.64576,0.55549 -0.0674,-0.076 -0.19928,-2.54981 -0.29303,-5.49742 -0.12965,-4.07643 -0.0894,-5.33228 0.16803,-5.24646 0.18617,0.062 0.48782,0.61566 0.67035,1.23023 3.62035,12.19012 3.36617,11.22648 2.96121,11.22648 -0.15344,0 -0.5285,-0.4891 -0.83348,-1.08691 z"
       id="path14"
       transform="scale(0.26458333)" />
    <path
       style="fill:#fc2828;fill-opacity:1;stroke-width:3.22881;stroke-linecap:round;stroke-linejoin:bevel;stroke-miterlimit:0.5"
       d="m 201.47091,564.47097 c -0.13795,-0.39839 -0.99793,-11.85366 -0.99793,-13.29274 0,-1.24621 0.58088,-1.00488 1.02299,0.42502 0.19068,0.61669 1.12773,3.57575 2.08233,6.57569 0.95461,2.99994 1.73565,5.53077 1.73565,5.62406 0,0.49252 -0.58295,0.035 -1.2611,-0.98976 -0.6278,-0.94868 -0.8417,-1.0976 -1.17689,-0.81942 -0.2253,0.18699 -0.41139,0.61261 -0.41353,0.94582 -0.009,1.45792 -0.66587,2.47185 -0.99152,1.53133 z"
       id="path15"
       transform="scale(0.26458333)" />
    <path
       style="fill:#fc2828;fill-opacity:1;stroke-width:3.22881;stroke-linecap:round;stroke-linejoin:bevel;stroke-miterlimit:0.5"
       d="m 256.57124,553.06016 c 0,-0.0764 0.18554,-1.84907 0.4123,-3.93922 0.22677,-2.09014 0.50054,-5.1778 0.60839,-6.86146 0.17719,-2.76624 0.38344,-3.49942 0.79644,-2.83117 0.14065,0.22756 2.16955,12.23546 2.16955,12.84027 0,0.73566 -0.58574,0.21665 -1.12092,-0.99322 -0.32654,-0.7382 -0.72983,-1.25617 -0.92691,-1.19047 -0.19188,0.0639 -0.5657,0.74385 -0.83073,1.51088 -0.26502,0.76702 -0.62277,1.44156 -0.79499,1.49897 -0.17222,0.0574 -0.31313,0.0418 -0.31313,-0.0346 z"
       id="path16"
       transform="scale(0.26458333)" />
    <path
       style="fill:#fc2828;fill-opacity:1;stroke-width:3.22881;stroke-linecap:round;stroke-linejoin:bevel;stroke-miterlimit:0.5"
       d="m 303.92702,560.94892 c 0.0922,-0.76456 0.32993,-3.53651 0.52823,-6.15988 0.31933,-4.22434 0.60046,-5.55663 0.93137,-4.41382 0.14276,0.49301 1.87239,9.44966 1.87239,9.6959 0,0.48143 -0.61063,0.13619 -0.9061,-0.51231 -0.1784,-0.39154 -0.48607,-0.7119 -0.68372,-0.7119 -0.36009,0 -0.86514,1.24773 -1.02836,2.54056 -0.0479,0.37928 -0.26581,0.74854 -0.48428,0.82058 -0.31789,0.10482 -0.36372,-0.14661 -0.22953,-1.25913 z"
       id="path17"
       transform="scale(0.26458333)" />
    <path
       style="fill:#fc2828;fill-opacity:1;stroke-width:3.22881;stroke-linecap:round;stroke-linejoin:bevel;stroke-miterlimit:0.5"
       d="m 356.26606,557.56211 c -0.68549,-1.54966 -1.38218,-1.91968 -1.96415,-1.04319 -0.2262,0.34068 -0.50441,0.61941 -0.61824,0.61941 -0.11383,0 -0.19431,-1.89011 -0.17884,-4.20025 0.0155,-2.31014 -0.0728,-5.07751 -0.19617,-6.14971 -0.42645,-3.70643 0.42777,-1.89251 2.26767,4.81534 0.98531,3.59221 1.7936,6.69147 1.7962,6.88724 0.0103,0.77417 -0.56782,0.28887 -1.10647,-0.92884 z"
       id="path18"
       transform="scale(0.26458333)" />
    <path
       style="fill:#fc2828;fill-opacity:1;stroke-width:3.22881;stroke-linecap:round;stroke-linejoin:bevel;stroke-miterlimit:0.5"
       d="m 404.05902,547.3365 c -0.7328,-1.55896 -1.27416,-1.79213 -2.3368,-1.00649 -0.45157,0.33386 -0.86745,0.5606 -0.92418,0.50386 -0.15467,-0.15466 0.67049,-9.96166 0.85357,-10.14474 0.31909,-0.31909 0.67147,0.43105 1.37934,2.93629 0.92844,3.2859 2.18645,8.27183 2.18645,8.66568 0,0.71395 -0.61059,0.21078 -1.15838,-0.9546 z"
       id="path19"
       transform="scale(0.26458333)" />
    <path
       style="fill:#fc2828;fill-opacity:1;stroke-width:3.22881;stroke-linecap:round;stroke-linejoin:bevel;stroke-miterlimit:0.5"
       d=""
       id="path20"
       transform="scale(0.26458333)" />
    <path
       style="fill:#fc2828;fill-opacity:1;stroke-width:3.22881;stroke-linecap:round;stroke-linejoin:bevel;stroke-miterlimit:0.5"
       d="m 444.05109,547.14019 c 0.0974,-0.48715 0.31437,-2.37726 0.4821,-4.20025 0.48961,-5.32158 0.56401,-5.77813 0.92218,-5.65873 0.18214,0.0607 0.61366,1.76629 0.95892,3.79016 0.82313,4.82513 0.82413,4.72768 -0.0459,4.50933 -0.63118,-0.15842 -0.77087,-0.0339 -1.27131,1.13362 -0.65126,1.51933 -1.3191,1.79122 -1.04603,0.42587 z"
       id="path21"
       transform="scale(0.26458333)" />
    <path
       style="fill:#fc2828;fill-opacity:1;stroke-width:3.22881;stroke-linecap:round;stroke-linejoin:bevel;stroke-miterlimit:0.5"
       d="m 500.59454,558.01299 c -0.88485,-2.05687 -1.54561,-2.1119 -2.16809,-0.18055 -0.14828,0.46007 -0.42338,0.88775 -0.61134,0.9504 -0.25774,0.0859 -0.29617,-0.50463 -0.15638,-2.40268 0.6195,-8.41106 0.84705,-10.64486 1.08477,-10.64903 0.14647,-0.003 0.82381,2.72318 1.50521,6.05722 0.6814,3.33404 1.31441,6.41428 1.40668,6.84499 0.27921,1.30322 -0.40563,0.90276 -1.06085,-0.62035 z"
       id="path22"
       transform="scale(0.26458333)" />
    <path
       style="fill:#fc2828;fill-opacity:1;stroke-width:3.22881;stroke-linecap:round;stroke-linejoin:bevel;stroke-miterlimit:0.5"
       d="m 524.81417,554.95515 c -0.002,-0.28714 -0.25665,-3.91786 -0.56594,-8.06828 -0.66586,-8.93545 -0.64701,-8.33141 -0.25599,-8.20107 0.17244,0.0575 0.8644,2.02234 1.53769,4.36636 0.67329,2.34402 1.74957,5.68748 2.39172,7.42991 0.64215,1.74244 1.16755,3.24812 1.16755,3.34597 0,0.57216 -0.62244,-0.0241 -1.44922,-1.38829 -1.35127,-2.22958 -1.68616,-2.06442 -1.94989,0.9616 -0.0955,1.09528 -0.30457,1.88828 -0.51638,1.95826 -0.19741,0.0652 -0.35755,-0.11492 -0.35954,-0.40446 z"
       id="path23"
       transform="scale(0.26458333)" />
    <path
       style="fill:#fc2828;fill-opacity:1;stroke-width:3.22881;stroke-linecap:round;stroke-linejoin:bevel;stroke-miterlimit:0.5"
       d="m 557.14877,558.29756 c -0.64533,-1.24792 -2.14616,-1.53239 -2.14616,-0.40679 0,0.23874 -0.14798,0.38475 -0.32884,0.32446 -0.18086,-0.0603 -0.61699,-1.38444 -0.96918,-2.94255 -0.35218,-1.55811 -1.22295,-4.77797 -1.93502,-7.15523 -1.29774,-4.33247 -2.74698,-11.00456 -2.74698,-12.64668 0,-1.99621 0.79559,-0.293 3.14609,6.73525 1.3586,4.06235 3.25679,9.43639 4.2182,11.9423 0.96141,2.50591 1.74804,4.65231 1.74807,4.76978 1.3e-4,0.5148 -0.59163,0.14245 -0.98618,-0.62054 z"
       id="path24"
       transform="scale(0.26458333)" />
  </g>
</svg>
